<mxfile host="app.diagrams.net" modified="2024-03-17T15:04:43.063Z" agent="Mozilla/5.0 (Windows NT 10.0; Win64; x64) AppleWebKit/537.36 (KHTML, like Gecko) Chrome/122.0.0.0 Safari/537.36" etag="QwjF7-XfwPYO_v-0ebOc" version="24.0.7" type="device">
  <diagram name="Page-1" id="c7558073-3199-34d8-9f00-42111426c3f3">
    <mxGraphModel dx="913" dy="401" grid="1" gridSize="10" guides="1" tooltips="1" connect="1" arrows="1" fold="1" page="1" pageScale="1" pageWidth="826" pageHeight="1169" background="none" math="0" shadow="0">
      <root>
        <mxCell id="0" />
        <mxCell id="1" parent="0" />
        <mxCell id="t7YmEEANc2R9Ah_3-m2z-251" value="" style="group" vertex="1" connectable="0" parent="1">
          <mxGeometry y="71" width="696" height="385" as="geometry" />
        </mxCell>
        <mxCell id="t7YmEEANc2R9Ah_3-m2z-108" value="" style="group" vertex="1" connectable="0" parent="t7YmEEANc2R9Ah_3-m2z-251">
          <mxGeometry x="359" y="176.949860724234" width="100" height="64.34540389972146" as="geometry" />
        </mxCell>
        <mxCell id="t7YmEEANc2R9Ah_3-m2z-96" value="Chroma&lt;div&gt;Vector Database&lt;/div&gt;" style="rounded=1;whiteSpace=wrap;html=1;" vertex="1" parent="t7YmEEANc2R9Ah_3-m2z-108">
          <mxGeometry x="15" width="100.00000000000001" height="64.34540389972146" as="geometry" />
        </mxCell>
        <mxCell id="t7YmEEANc2R9Ah_3-m2z-106" value="" style="shape=image;verticalLabelPosition=bottom;labelBackgroundColor=default;verticalAlign=top;aspect=fixed;imageAspect=0;image=data:image/png,iVBORw0KGgoAAAANSUhEUgAAAdMAAAE4CAYAAAAAfRnsAAAAAXNSR0IArs4c6QAAAARnQU1BAACxjwv8YQUAAAAJcEhZcwAADsMAAA7DAcdvqGQAAClcSURBVHhe7d0HnB5Vvf/x72Z7zaZXEiAECCHUIE2kiCBNRJHmXxAsiFhBvSr617947wVFBeyiAlZAvJcqoICgFEFACDX0lhCS7GZLtrf/7+wcvJEbYPc5M88zzzyf98snc87ZEGQzO985M6eUjRgBAICcTfBHAACQI8IUAIBAhCkAAIEIUwAAAhGmAAAEIkwBAAhEmAIAEIgwBQAgEGEKAEAgwhQAgECEKQAAgQhTAAACEaYAAAQiTAEACESYAgAQiDAFACAQm4MjyPo+qXV9dOzokdq6pc5eqbvfPtbWYl/rGYi+5s409zWnx77ePxSVX21ibXSsq5IqyqUmqzfVSFUV9rU6qd7apzRINZXSpPro94/+Hv/PoUitb7cTpU3q6rSTxz49djKNlt1J1BUdB+1kcm0DdgIN2AnmdNvvG7aTqczKR62TJg9G7c6Eif/7WG6fMjuhyidb3U6oCZP8sTn6mju6OjAOhCleV79dl1ww9to1bJ1ds55vkZY9Lz20QnrOyp0WkmlRayG7xQxpoX22miltt4nUaNdMF7rua+6IAhketpPJwq/f7qb67LNujfTs43ZCPWknkn3WvmRBuUEI5sKF6Yfsz50a+Oc45VPs7m1L+2xjnwVS9WL7813g2glVZndtZXZCARsgTPEvBuwG/66npPtfkG59LOpRuiB1oeq+Vkxni7u2up6t69G6IHXBusN8aZ+tpe0taOnJJqzDeokP32ufe6QnHvK9SfdIwj6uJxm3OMP0f7E/3AVoWXV0rJhrJ9VSqf6tFrSL7Ou8MSt1hGkJe6ldenSl9ID1NJ9aLb3YKq1sk4asE5F1E+zaOK1JmmcdkM2mSovnSEssYOdbHeM0ZMG4yu6+nnpEevpRO7GsvHaV1GknUz4vL4mG6etwj4wr7ASq2tQ+dqfmerQuaCc0+t+AUkCYlgjXs3zBwtI9pr33Welv1vt8bq11EPjb/xezmqVdF0hv2jwK2U3t43q22IB7Z7nmJbvzek568O/S4w9E7zoLrVBhujFldtJULpTq9rJg3cnC1u7UKu2DzCJMM8r9rbrHss9bgF52l3TdsujdJ8bvgCXSe3eXtpwRPTZ2vdqS4t53Dg1ID90j3XqN9PB9/gspk6Yw3Rg3+Gni+6WGA6VyO5nKeImfJYRpxrjRtFfYte5PD0mrO6JBQ/wNx8ONJJ7RJL15S+moN0nTsv4U77knpDv+JD36Dzux1kaja9Ms7WH6T3ZH5kYSV8yWGt8j1e9nQdvgv4ZiRZhmwCMrpb8sl+55xjoPL0Y9UiTPjRp2weoeC+80366PxT4GxY2yfXyZtOwuO6nsjmy1nVjFpGjC9FXcNJyaXaTa3aW6vaP3ryg6hGkRcu853UChO5+ULvqrtKrdfwEFM7leOmZXab9tpLnW6ai0zkdRcFNVXGjedoPdkf0hGm1brIo1TF+tekep+QSpalsLVjcirlhOptJGmBaRwWHpeus4/OAmqaXL6vRAU8f1TmsrpZP3lY60zkZqBy+5XuhVv5BuvTaaqjKSgSHcWQnTV7gpOJWb2Z3aF+yk2sk3Iq0I05Rzfzv3PBu9B73Pju49KIqDW5lp8dxo8JJ7DFzwYHWLItx2vZ1Qt0rPLLcQ9SsIZUXWwvSf7A6tYoZUt4/UeKSdSAt9O9KEME0p9xjXLZ5w7f3RAgr8LRW3+VOld+wovW2xNLvZfvDchT8fXI/z2SekZX+T/nx1NK0lqzIbphsqj3qpjcfY8U3RCGGkAmGaIm6xBLeW7W/tuvebO6PHusgW9xh4jy2k0w+SZtl10E21SYRbw9YtonDtb6RH7Y6sFJREmG7AjQCedKpUf4idWC5U83WHho0hTFPiabsG/Id1HB5eES2wgGyrrpA2mSKdsq+0j1uNLi4uRG+5Rrr5SrszW53Msn1pVWph+goXqjU7S1O+aHdns3wj8o0wLSA3heX6B6Ur7pWWvcBqRKVq2znSUbtKe28tNVT7xvFyA4r+9Hvp9huktS/7xhJTqmH6CrcIRO2eUtPxdlzqG5EvhGkBuIXj//6MdP4fox4p4MydZFmwTzR3tXmsO4C5xeTvvU36/U+jQC1lpR6mG3LzVZtPlqq39Q1IGmGaR+477UL0M5dIXRkbSIn4uCD91IHSodvbD+hrvQZzj29vulL6r59Hj3ZBmG5M5Txp1oVS+TTfgKQQpnny58ekH98c7c7C41y8Ebf+7yaTpQ9bT/Xt2/lGxy2qcJ3djd3+J6nVTib8D8J049zjX7cQxKRPSDUbnkyIE2GasPuek359h3SLhSmQC7c93Em7D2ifthula35tIcq7gY0iTN9AudR4mNT8IY3uYoNYEaYJcN/R1Z3Sd26IFpwHcjVBw9qpf5m+0PZdbTr4om/FRhGmY9f8gWigUvkk34BQhGkCzv+TdNndUg9bniFA9Ui/ftjyb9q2f7n1KVg78g0RpuNg36zReaoft1A9xrchBGEaE/ce9OZHpB/eLD271jcCOagb6dEpHRfriO7rVDtS4iN0x4MwzY3bvHzyp+zubQffgFwQpjF4rkX6/o1RmPLNRK5c73Np3wP6fPv3NG9whW/FmBGmuXODlBoOj1ZUKnc71WC8CNMAbteW398rnXsDqxYhTNPIep2x7jzt3/sX34JxI0zDuXeo074h1e5ilWLfoDe/CNMcPflyNF90xTqmuiDMO7r/qI91/FxThu1kQu4I03iUlUePfGf+0Mo1vhFvhDAdJ9cDvfCv0i9uj1YyAnI1c2iNTm//kfbpvd36APwYBiNM4zWhXpr8OanxCN+A10OYjsPzLdLpv2UJQIQp17De3HuXvtp2jpqG1/tWBCNMk1G3l31Pv2onLqsovR7CdIyuul868woe6SJMxcigvtfyRS3tX2bXfk6mWBGmyXGPe2ddIFVv7xvwarxhfgM9A9G7UYIUodxI3cvWnKxd+h8gSFFc3BStlz4gtXzDN+DV6Jm+jrufkc74ndTa5RuAHL1v/eU6teNCVYpeU2LomeZH1VbStLPsuMA3wCFMN2JoWLr0bulb1/kGIEfNwx36RuuZ2rl/mW9BYgjT/Jr5E6n2TVbgAafDd+FV3Ibdn/iV9J3rfQOQI7cM4O9Xf5AgRTat+ojU+h1fAWG6gUdWSsf9UPrbU7wfRe7c+9Bju67Q91q/aD3Tdt8KZM2w1H6xheqHpKFW31a6CFPPbZF2ykVMe0EYt67uJzt+qtPaf6xGpr2gFPTcJb14uNT/iG8oTSUfpu6NsVuEwc0fXd/nG4EcNIx067zWL48ONnJbpwElwz2BWXGMXUSv8Q2lp6TD1G2R5qa9/OAm3wDkaJJdTH655mPaqe9B3wKUoLVfk9Z93wqldzNZsmHa0iV9/rLo8S7vRxFit777dPnqD7LTC+Dmo7b92EL161YurUd9JRmmqzukEy+QbnvCNwA5emvPbfp+yxdGp8AA8Dovtwvt56ShNt+QfSUXpm6Xl8PPi45AiKO7rtR/rvsPXwPwL7r/LL303pLpoZZUmN71lPVIf8reowhTocHRDbxP6/jJ6IbeAF7DwAvWczlKKoFXICURpm7E7l+WR4ONWpitgACVIwM6teMivafr6tFF6wG8gYFnpFWnWC/mMd+QTZkPUxekd1qP9LMWpN39vhHIgeuFfrLjZzp+/e98C4AxGXg2Wig/wz3UzIfp9Q9Kn/61/R0y7Q8B3LzRs1r/ffQ9KYAcDHdGj3wHnvYN2ZLpML3yH9KZdu0jSBGieqRPX113jvbtvWM0VAHkaDRQj5V6/uYbsiOTYermjf75Uemsa6Q+XmshQOXIoD7VcYEO6bmJPUiBOIz0RNNm+h72DdmQyTC980npc5cyahfhPtf+fR3VdbWvAYjFcJu06oN2zM787MyF6c2PSJ/5bdQ7BXLlBht9pe3bOrybvfiARAx3SS8cmJlBSZkK04delM68ynqkTP1DgHIN65SOX+iw7j+OlgEkxAWq2xd1cKVvKF6ZCVO3RODpl0gdPb4ByNG7u67Viesv4R0pkA8Dz0kvf9KCtdM3FKdMhOnKNrsAfldaW9x/F0iB/Xv+qtM6fuRrAPKif7ldyI8v6qUHiz5M3UIMbrARCzIg1KKBJ/SVtm+NjuAFkGdu/umaL1ugFufFvKjD1M0f/eLvpEeL/3E7Cmz+4Iv66drTVeeG7QMogBGp63q/H2rxKdowdcsE/vtV0l8f9w1AjhpHuvSztaeppsT2XwRSqf1CqbP4luws2jC99G7p2gd8BQhw5rqzNWm43dcAFFzLN4tuYfyiDNO7npa++QdpiFkLCDBBI/pq27e0V+9dvgVAKoz0Si+dJA2+4BvSr+jC1G2h5naAAUK9vedmHdx9k68BSJVhu9i/fFp0LAJFF6Yf+6XUxastBNpq4Cl9bd032dwbSDM3Zab1HF9Jt6IJ00G75n3lv6XHV/kGIEcNI106q/XrLMoAFIPOK6T2i3wlvYomTG98hAFHiMe/rztL84aYTwUUh2Gp7QJpIN1TN4oiTFesk864PJoOA+TK9USP6bpCb+6927cAKApuqcGVJ9gxvaPuiyJMXZACoTYffF6fbrc7XADFxy2K33KWr6RPqsN0dGGGq6UHX/QNQI4mDnfo7Navq0IsFQgUrfXXRu9QUyjVYfrwCunK+3wFCHBq50XazHqmAIrcunOlwZd8JT1SG6Zu+ssJF7AwA8K9pffO0W3VAGTAUKu06hRpZMA3pENqw/S7f/IFIIDbAeb0jh/7GoBMGHhW6kzXYJpUhumtj0m/+7uvADly70e/3PZtzU3hIyEAIYal1m9J/emZLpO6MB0Yks79o68AAXbpu1+H9LBcIJBJbt/TlnPsmI5BhakL04//Unq+xVeAHDUNd+r/tn3H1wBkktukov1nvlJYqQrTh1ZI/2DAJWJwcucvNX1ora8ByKYRqeM3duj19cJJTZh29kj/cVW0Bi8QYvPB5/Su7ut8DUCmDa2TVp9W8NG9qQnTax6QlrOIPQJV2Q/UD1q+YMd+3wIg87pvl/oe9pXCSEWYtnVLP2CcCGJwWPcNmuLmoQEoISPSms/aoXA30akI07OusRsLOhIING2oRZ/q+Kmd1OyIAJScwZeljl/6Sv4VPExfbpduecxXgADHdl2hupEeXwNQctotTIfX+0p+FTRMewekD/48mlsKhJg83KYT1l/mawBKknvFs+bzvpJfBQ3TO5+UVrb5ChDgi23n+xKAktZzt4Xqal/Jn4KFad+gdD7r7yIGbirMXm7yNgC4OadrvmKF/O6SUrAwvfZ+VjpCuHIN6fyWL7FPKYD/0XO71Gshk0cFC9OL7b8VCLX1wJOaObTG1wDAa/uJL+RHQcL0wtukF5kKiBh8uv3HKmMqDIBX67nDPnf6SvLyHqZuPulv8/ffhwzbs/du7dhf2FVPAKRYHhfBz3uY3vyo1FKYaUDIGDevFABekxvZO5Cf3VPyGqZuXunZ1/gKEGDH/gf1pr5/+BoAvIaXP2G/JD+yN69h6nqlLBuIUG4E72ntP7Fjfoe+AyhCgy9Y7/Q5X0lO3sLUba128V99BQgwfahFCwaT/+EAkAFua7bW77pCVE9I3sL0L8ulJ/O/KAUy6NTOC1U90udrAPAGum+U+pJdBD5vYfr7e3wBCOBWOzqo+2ZfA4AxcoGaoLyE6dr10r3P+goQgEFHAHLSeXm01GBCEg9T95T6vBvYGQbhKkYGdXLnr3wNAMZhaJ0F6pW+Er/Ew7SlU7rxEV8BAhzQe6uahu2EAoBcdFxqvyQzECnxML3nWeuVsgY5YnBYN9sMAQgw+LwFUjLvHBMN08Fh6ed/SXpAMkqB65Fuz9KBAEKM9Eutbu/j+FMp0TB98mXpKabDIAYf6fyFqt0PAgCE6L5JGop//89Ew/QqBl4iBvXD3Tqw5xZfA4BAfQ/5QnwSDdPbHvcFIMCmQy+oaZjdEQDEpP0XvhCfxML0dgvSFet8BQhwRNd1dqKyDi+AmPTeI/U/4SvxSCRM3avdn7MOL2LQPNyuw7tv8DUAiElXvNeVRMLUTYV5sdVXgAC7991LrxRA/FzvNEaJhOnyVdESgkCoPWI+4QFgVN8yaTi+d5GJhOmPWIccMXA90t2sZwoAsRsZlNp/6yvhYg/TdV3S3U/7ChBgt977NHm4zdcAIGZd11qoDvhKmNjD9Jk11nNmySPE4J3d1/sSACTALX4/bD3AGMQeprcu9wUgQJlGtOXgU74GAAlw89f74wmt2MP0z+wQgxi496WzBl/2NQBISPuFvhAm1jB9fJW0gldciMH7Oy9ThdgEF0DCeu+yHmq7r+Qu1jC95xlfAAK4Xul7uq/2NQBI0IjdtPeHr30bb5gms00cSszUoVZNS2BXBwDYqL7w95OxhulTvOJCDGYPcSIByKOeu3whd7GF6ZpOaSXvSxEDNgEHkFe99wXPN40tTK9zKzMxvxQx2Lf3dl8CgDwY6bZADVttLbYw/fOjvgAEqB3p1ZL+x3wNAPIkDWHaa71jdolBHBbHNIEaAMbFLXwfIJYw7eyVuvt9BQiwfT+rfgAogMFVvpCbWMK0tSvqnQKhFg4yWRlAAQyutF9yXygmljD925O+AASaN7jClwAgj0b6pL4HfWX84glT1iNHTOaO3h0CQAF03+IL4xccpn2D0gPP+woQwPVK690QdQAohPVu28fc5ngGh+nL7VGgAqH26gtfhQQAcja6v2mPr4xPcJgyJQZxYSQvgMKynmGOO8iE90w7fAEIUK5hbTnAy3cABeR2kHEbhucgOEyfZXMPxKByZEDVI0xWBlBIw9LQal8en+AwXcFjXsSgyoK0xg1NB4BC6sttFbbgMH2eniliUGU9U8IUQMHluGtV+DvT3N7VAv+ieaRjtHcKAAU18KwvjE9QmLb3SOvpTCAGDD4CkAr9T9gv419WMChMecSLuGxFmAJIi6E2Xxg7whSpQJgCSI0cdpAJClMWbEBcZuQ4HB0AYjc0/nALCtM2llFFTOaxwD2AtMhh4YagMF3FSF7EoDHHFUcAIBHD63xh7ILClJG8iEPdSG4LSwNAIvL9mLef3WIQA8IUQKoMd/nC2IWF6YAvAAFY+QhAqozk+Z1p3/jntQL/Cz1TAKky1OkLYxcUpoOEKWJQl+NmvACQiByWNg0K0wHCFDEo04gvAUAKjPT6wtgxAAkFV5vDiQsAiRnJ8wAk+hOIB2cSgDQZ/zUpKEyBOFSz9RqAIkeYouAqctjuCAASM8w7UwAAwoyMfxGFoDCdUOYLAACUsKAwrSj3BQAAsqJs/OHGO1MA2eCelPG0DHGYUOcLY0eYAsiGshGuaCiYoFOvkse8AIDMqfTHsQsKUwYgAUiN0ce8LACCGJTV+MLYBYVpdYUvAEAa8JgXcSjLc8+0nBMXQFq4nmk5PVPEYEKDL4wdPVMA2eCuZtzgIw4Tan1h7IJOvSrCFEBauPel9EwRhwlNvjB2YT3T8T9WBoBkuMe89EwRh7J6Xxi7oFOvodoXAKDQ3NWMniniUD7ZF8YuKEwnjz+8ASAZzUNR7xQINaHRF8YuKEznTfUFACi0yWxjhZiUT/eFsQsK0xnjf0cLAMmYQpgiJuXNvjB2QWE6a/z/PgBIxrTx70EJbFS+35nOtX8frygApAKPeRGLcvvfFF8eu6AwnVQnNYx/CUMAiFfFiDRlyFeAAFVb+ML4BIWpM59BSAAKrW7YF4BA1dv6wvgEhynvTQEUHGGKuFQu8IXxCQ7TzeiZAii0Bh7xIiY1S3xhfILD1A1CAoCC4n0pYlEulY1/xxgnOEznTPIFACiUqUyLQQzK3Eje3BZQCA5TFm4AUHAzmRaDGJRVWCoWKExnTpTqqnwFAAqBBRsQBzf4qCy3HVyCw7SsTNplc18BgHybaUEafCUDTO0evjB+sZyCu+U2khgAws2iV4qY1L/NF8YvljDdfQv7g1hXEEAhzOv3BSCAe1dataWvjF8sYeremdZU+goA5FMT02IQg/JpvpCbWMK0vlqqZRASgEKYxEhexKByti/kJpYwdb3SLWf6CgDkS6P1ShtYShAxqN7JF3ITS5g6b93GFwAgX3bs9gUgUM0uvpCb2ML0oO2k8tj+NAB4A27Q46LeqAyEmNBsYbrYV3ITW/y5R73zxr+fKgDkpmY4eswLhKpZar+UR+UcxdqX3HqWLwBA0ty2a25TcCBU7a6+kLtYw3SHeb4AAEmb3x/zFQwlqzrsEa8T66m450JfAICkMfgIcSirkqrCl/GLNUxnNUtL5voKACRl4pA0g2UEEYO6/S1Qa30ld7E/JNkz99WYAGBs5rKEIGIy8VhfCBN7mO7OovcAkrZZny8AAdyUmMp4tj2LPUw3myZVhY0wBoDXtxk9U8SgYpalYL2vhIk9TN06vYfs4CsAELdNLEiZX4o4NL7TfoknBmMPU+fEvVgNCUBCGMWLOLgeaeN7fCVcIpE3vUma1ugrABAXt4Qgg48Qh+oldj5V+Eq4RMK0spwFHAAkwO1dyv6liEPdPr4Qj8Qexr5/L18AgLjs25HgVQulw06i+gN8OR6JnZYLZ0QfAIhF/bC0DbvEIAYN75DKp/pKPBK9x3tr+HKHABCZzbtSxKT+bb4Qn0TDdC9WQwIQl50YxYsYlFVL1dv6SnwSDVO3JRvbsgEINmlIWsCqR4hBwwFS+SRfiU+iYep8Iv7eNIBSs2OXLwAByuqkyWf4SrwSD9NFs6XGGl8BgFxsTq8UMajexlIvfIeYjUk8TJvs//cBS3wFAMZrq15p+qCvAAEaDrJf3Mof8Us8TJ3T3y5NTOZmAECWuSvU3p1RGQhRtVBqfJevxC8vYVpdIS3ZxFcAYKymWI/UDT4CQtVbr07JbWmWlzB1Tngzi98DGKedu+zCMeIrQI7cdJiGQ30lGXmLt53mM+8UwDi4XilzSxGH5g9He5cmKK99xUPZ5xTAWBGkiENZVezr8G5MXsN01wXR9mwA8LrqhqVte3wFCFCzvVSZ/KCdvIZpnd0gfOkd9i9NZmQygKzYY71Ua4EKhHC90mnfsELyUZfXMHWWbmb/bfROAbyeLdkdBjGo3VMqn+Irycp7mLppMiwxCOA1vaVTamY6DGIw6aO+kLy8h6nz9iUsgA9gIxosRHdnHV7EoOEwqWorX0leQcLUOWpXXwCAV+zczbxSxKBcajrOl/OjYGF66PbR+1MAGOXmle6+3leAAI1HSNWLfCU/ChambjWkj73VVwBgaVcBr0jIDLdX6eRPWiG/J1NBT91t5kRbtAEocTMGpO2YV4oY1L3Nkm2ir+RPQcPU9U5/8eFomzYAJcrNOz+0XarkXSkCuZ1hpn7JV/Kr4A9V3AIO++T30TaANFnYaxdA9itFDJqO94X8K3iYOp85SNpksq8AKB1ulSPXK2UEL0LV7Co1HOgr+ZeKMK2vkk56i68AKB3b99hFkGUDEapMmvIZO9T4ev6lIkwdt6PMDvN8BUD2zRqQ9u70FSBA45FSVWH3+ExNmLp3p18+XKqu9A0Asm0vC1Ie7yJUxVzrlX7eCoXdQSU1YepsOlU6YU9fAZBdi3qlLfp8BchRmfW+Rh/vFr4XlqowdU7eV9qGuadAdtUPS4e0+QoQoP5QqW4/Xyms1IWp88XDfAFA9ry9Xari8S4CldVKk071lcJLZZi6VZFOZalBIHsW90hbsVcpApVVSNPPliqm+4bCS2WYOkfvJs1q9hUAxc893j3IeqVAKPdot24vX0mH1Iapm3v664/Y98uOADLg8DYe7yJc5XzrlX7DCuVRPSVSG6aOW7P3w/v6CoDitWO3NJ/Ru4jB6DSY9EVXqsPUzRp63x7S/oujOoAi5HaEcYOOCjsNEFnQ/FGpNp3zJ1Mdpq/4t0OkqY2+AqB4uJ1gjlxHkCJc1VYWpif6SvoURZhOrpe+dYz9n+UHEigurkc6cchXgByVT5NmXmA3ZdW+IX2KIkydxXOi3WUIVKBI7L5e2oZpMAjkFq+fcoYFarqndxRNmJZZiB69q7T31r4BQHq596R7WJiy9i5CTXy/VJ+OVY5eT9GE6SvOOUbazHr8AFKq2gL0A2ujIxCi/mBp0kd9Jd2KLkydbxwt1bC7DJBOR7X6AhDgn7vBFIeiDNPNrWf6TeuhVlX4BgDp4AYcbdLvK0COyqdIs3+Z+vekGyrKMHX22EL62Fvte120/wVAhriBgTt1Rx8ghBtwNO0/o0AtIkUdRcftLr1zZ18BUDjzrDd6AOvuIgZTPivV7uYrxaOow9SN8P3sQdKBS3wDgPybY0F6dGuRX01QeHYCTf6M1PAuXy8uRX/6V5ZLnztYWjjDNwDIn0mD0jusR1rByF0Eqj9Amvhe6yWlawH7scrEvWRznfSrk6VNp/oGAMlzO8C813qkLlCBEO6xbgp3ghmPzDyYqbC/g5+eRKACeeGC9OQ1UhNLBSJQ7VssSM/1leKVqbcck+qlr70rOgJIiFu8/oh1UiNBikBV20jTzrQkqvMNxStTYeq4NXx/7FafSu96yEDxcssDHtomLWBvUgSqmCfN+a2dU5N8Q3HLXJg6C6ZLl54q1Vb5BgDh3NXiuFZpEYvXI5DbBWbOZVbIzs4lmQxTZ9ZE6Xvvo4cKxMKN1j3SgnQuqxshUPkMu0BfnIlHuxvKbJg6O8yTvn2cVEegArlz70gPaZe26MtSRwKFUDE7Wiawcq5vyI5Mh6mzdFPpog9F02cAjJPrkR7eJi3u8Q1Ajqq2lOb8l51TM31DtmQ+TJ0F06J5qFMbfQOAN+Z6pCe1SAt5R4pAVUukWdYjzdij3Q2VRJg6s5qln50kLcne0wUgfm7+6HstSKcO8GgXYWr3tAvwDy1tan1DNpVMmDpzJ0vfOjYa7QvgNTRbkB7TKs22IAVyZvFSt68043wrNvm27CqpMHWmNEiXnSot3SxaKB/ABuqGpRPXWo+UJQIRwi6uE4+3ID3PipW+LdtKLkxf8d3/YzffxbfLD5Ac9270o6ulWgtUIGcWpFM+L03+pK+XhpIN06oK6RP72+cAja7rC5S0pV3SO9uiNXeBXJU3R491m452laitRJRsmDouUE/YU/raEfZ3n+1348DGuRG7b+uQDrCPKwO5cnNIp58n1e1tldKLlpIO01e4zcXd8oPNLJCPUuJ6oce3SLtYrxQIUbGpNOdSqWZH31B6CFNveqN0ySnSvot8A5Blcwakk9ZKMxixi0BN75PmWpBOmOgbShNhuoFpFqhnHyV9ZD+pkveoyCL3E79Dt3R0qzSZEbsI4MJz6lekKZ+VynhPRpi+Srl9Rz60N4vkI4PcO9ED2qWD7VPDiF0EKJ8arbHb+G7fAML0Nbh5qJd/zM6XbGy1h1JXb+H5/rXSTtYrBULUHyRtcq3dnG3qG+AQpq9jepN09aekD1hPlb1RUZTcT/iOFqAfWSNN47EuAkxokKb+P7swns1j3Y0gTMfgo/tJ577Xbsam+AagGLj1dQ9tkw5ql6p5rItcldn5s0Sac7nUeIRvw6sRpmPktnJzj313tiPLECL1Zg5IH1wrbcvWaQhhEdH8QWn2r6N5pHhNhOk4VNh36ycnSj86wW7QeMqBNHKDjFxv1K2vyyAjhKjcwnqjl0iTPu4b8HoI0xy4wUn/befXu5ZGo3+BVNiyV/qAheh21hvl6QlyNaHeAvSj0SIMVVv7RrwRoiBHk+x8O+Mw6fz3SfN5l4pCahiSjrDe6JHrmDuKMFWLpFm/kpo/YjdkpbHbS1wI00C7bS5dYjdxJ73Fvpn0BpBvbgGGU9ZIi3g3igBl1dF2abN/Y4G6wDdiPAjTGLgF892I30stVPfbxjcCSZo1IL2vJRqpywL1COF2eJl7RbSRdxlLv+WKMI2JG+G7+XTpm3ZenvluK0+L2oBYNQ9KB3ZEA4w26beTzLcD42KXfrco/exfSVPOkCrm+HbkijBNwMHbRbvQnGw3eixJiFhUVklLe6UPW4juzC4vCFBud/0zzpVmXSxV28UKsSBME+Len7o1fq/8lHTs7r4RyMVeb5e+/jPppIvs7mx73wiMk1u1yPVCRx/p7uMbEZeyEePLSNCTq6XL7pauvV/qZderf/Gu7j/ojLbzfA2jJth97uKdpYOPk7Z41Yv4ntultgvsRLKTScwlxRtwU10mvl9qPNJ6pUw9SAphmmcr26Rzb5DufFLq7veNJY4w3cCEcmnzraXDj5e23sE3bsyQ1HWT1H6x1P+YNMIdGl5lQrP1QPeOtkib0OQbkRTCtECG7bv+2UulWx71DSWMMPWmz5ZOP1uaPN03jIWdSL33Smu+JA2u9G0oeY1HS1O/YAXe5OULYVpgz6yNHv/+1z12LbTORikq+TDdfX9p38Ok+QujnmkuRnqth7pcWvdDqecO34iS4nqik0623qidTxUzfCPyhTBNiZc7pMv/Ll23THqpzTeWiJIM06ZJ0g67SQceFfVI49Rzl9T5ezveJg2v943IJut5Vm8TzREdfSfKBsyFQpimzID1Tm98WLrgVmnluqiedSUTpq7XOXGytPfBUYhWVPgvJGTY7tBavy1128k01GoN/KhnhluxqHJzqfkDUv0BvhGFRJimVP+gtKpd+vYN0h1P2LUww4M2SyJMR0fmHittuqVUlc/Jx/bjPdwj9f7dgvUcuzt7zrejKJXZDVjT8XZTdpwfmcuKRWlBmKac+8txPdS7n5YuvUt64uWoPUsyG6Yz5kq77SftsIc0Z779tBV4MMhIv92lPSl1XS+tv8bu0Nb6LyDd7Lyp3U1qfKdUswvTW1KKMC0yD74oXWKh+sgK6fkW31jkMhWmk6dJ8633ub9d+BZsYxe+hB/l5soFa9cfo1Dte9R6r3bHhnSpWmgh+mbriR4pVWziG5FWhGkRc73Uc6yT8eAL0WPhYv2bLOowdQswV1RGwXnwMdKiHf0Xikzn5VLbz623aicVc1YLxHqg7l2oewc65d+s2uDbUQwI0wxo75GeXSv9YZl09T+so1Fk18KiDdOd94qmtMy0XoMbnVv0OxsMSYOr7AR6ROr4TTR/FclzU1oa3y01HGQ3ZnOtXue/gGJCmGZMV1/0KPj+56W/PCY9tdqujykfvFQUYeqCcu7m0tbbS5svkrbbNc8DiQpgqEXquTMavNTjJkK/4L+AIGUWltWLpdo9pJqdrbyttaX0dQDGjDDNuA7rtd5oHY0/PhgtZbimM3oknCapDFP3rrPJegxTZ0aPbvc+JOp9ljI3eGn9VdE81qE1DGAaK9fTLJ9mvc551gM93O8bWum/iKwgTEuI66G6VZZuWR6NDH7YerBpmHKTqjCdt0Da9x1Rz7OuIQpVNqZ9FbtkuPeqQ+ssXK+1z5XSwDP+axhVVmXnzz52A3aU3+bMnUf0PrOMMC1hbqF9N5fVrbj06Erp3uek5S9J7d3+N+RJQcLU7Q+6cLG02dYWoAulabOsFzpDqq33vwHj4nqpg3byjL5zdVsj3WtHu2tz72GzbsJEO2+WRqFZtchyc7Z97Hyi91lSCFP8C9dTfa5FenqN9LhdF59eLa1dL63piB4RJ9GTTSxM3bzOeutduke1zVOk6XOk2fMsPLeQZs23Cx49hUSNzmu1QO1bZsen7OSxE8oF7pDdvRXbikxlNXa+2M1W+WT72LFqgX3sRqzaPu4RLgvKlzzCFGPmljZ0IbvcroluOo4bQbzCronu8bH7mnuE7MoucMcTuuMOU7csn9vvs9yO7jGsO7rpKe6dplthyA0UmrtZFJpZHyRUrIa7LWAfsh6sBe2AC9zHLVu77OPmeA1ER9erHZ2mk+Qlys4d9/h19BGsP7pHtJWb2rmzVRSYtTv5wGS1Ibw2whRB3FZybkCT+2wYqD3WKWmxa2OL9WrdY+PRj1vVzq6NnX3+Hzarrce7b+8dOnH9pdLEDaeX2HGi9SZraqN3l+5rLizdp8YN6PBB6kLUHavsApjrjitIh9EAtRNk2J0gPlBHg9VOpMEV1m4n02BL1LOVnWBu7WG3W47jjq7uuDB0001e4R7Dltl55FYOGu1h2tGVy6dGv1d2DrlHsv/8uDZ6mhgfwhQAgEDcfgEAEIgwBQAgEGEKAEAgwhQAgECEKQAAgQhTAAACEaYAAAQiTAEACESYAgAQiDAFACAQYQoAQCDCFACAINL/B9hVfJmyRNJlAAAAAElFTkSuQmCC;" vertex="1" parent="t7YmEEANc2R9Ah_3-m2z-108">
          <mxGeometry x="20.333333333333336" y="17.18802228412256" width="22.483071455293675" height="15.020576131687244" as="geometry" />
        </mxCell>
        <mxCell id="t7YmEEANc2R9Ah_3-m2z-111" value="" style="group" vertex="1" connectable="0" parent="t7YmEEANc2R9Ah_3-m2z-251">
          <mxGeometry x="576" y="283.11977715877435" width="120" height="64.34540389972146" as="geometry" />
        </mxCell>
        <mxCell id="t7YmEEANc2R9Ah_3-m2z-97" value="&lt;b&gt;llama2 7B&lt;/b&gt;&lt;div&gt;&lt;br&gt;&lt;div&gt;&lt;font style=&quot;font-size: 8px;&quot;&gt;llama-2-7b-chat.ggmlv3.q5_0.bin&lt;/font&gt;&lt;br&gt;&lt;/div&gt;&lt;/div&gt;" style="rounded=1;whiteSpace=wrap;html=1;" vertex="1" parent="t7YmEEANc2R9Ah_3-m2z-111">
          <mxGeometry x="-219" y="-11.7966573816156" width="120" height="64.34540389972146" as="geometry" />
        </mxCell>
        <mxCell id="t7YmEEANc2R9Ah_3-m2z-110" value="" style="shape=image;verticalLabelPosition=bottom;labelBackgroundColor=default;verticalAlign=top;aspect=fixed;imageAspect=0;image=data:image/png,iVBORw0KGgoAAAANSUhEUgAAAGcAAAB5CAYAAAAknT8SAAAAAXNSR0IArs4c6QAAAARnQU1BAACxjwv8YQUAAAAJcEhZcwAADsMAAA7DAcdvqGQAAF2YSURBVHhe7b0HfF3Vle+/VO5V781qlm1J7h0MGNM7xLTQSQiEZCZ9+v/Nm5lk5j//mbz0SaakFxgSEkoCGNONqcaAe++25Kbeu3SvpPf7rqNrSwaTZPJeXt7nz4bje3XuOfvsvVf7rbXX3ieuv79/1E6UYRsZjdro6Ii+j1pf35CFEpOsrzdiL69+055/7lXbv6/Gzw8NDVhc3Khl56RbfkGmVVVPs0suudDOOnuxxSVELCUlUb8nWDQ6YgnxiaovwYYGo5aQELJwOM6f9q5l3E9x73HZ77tEI2bxCfoSN2DRkT6Li49afNywmhvSSIVsJJpikYGwHa5psbff2movPP+SHT9+1AaH+m14uF/XRywpKd2KCkts3vxZduMHr9GYVajOiMZr2EKheBscZEwTLDkplQfZKcQZ0WAOqTI9LpRkA/1RGxwYsccfe8YefugxO3jgsHV1dltScrIeFPJrjQbqiAxHbMH8ufaZz35KBFpgObnpqi+eR/goj47oMXzqIyE+eNppyxhR/pCIMzAQsXAoUSPULwYe0jHon4nxqWLgVOvribO9e47agz99zFavet1a2zrV/hEbivRbYuKwxizOhqPxfqRnpNill51vf/rnn7HJk4tEXFFegmFi9sTEkCUmhPV3nCV8/vOf/3/96SpITHAkalgTbTiSYG+9sdO+/KVviTBHuFxECVtxSYFNnVZumVmpFpEEhcIh3Rxnu3busSOHj9ukSZOseFKJalRnEEKN8oh/GZXkqBkiZHwCRINgHME1Ewo//wERJxqJBm1VHxITE5yBhwYZq7BpCGzv3lp79OEn7cc/vN96ewcsPS3NMjNTrLAox4qKsi0tIyRJi7NIZNgkELZ3326dL7BpldMsNTXVhiSa1BsOBYShTCAOD0dVjQ4HD+xsM/vhD34hMd1iebmFlijOWXTGfLvlluvtA8uvtIUL51hBQYF1d/dYfV2TpC1Fn43W1dVjJSWTLTcn19VYYmLwsIGBXv2L6lRDQox+wC1jbdHnRGr8IRGHxoyMSEvEj1o8+m00QaekPYbipOoP2y8fWWmPPvKEiJVgWVlZUt2JtnDRHLv5lmvthhuvtiVnzbfUlDSr0zjRr1HJ4Lp162zpuUvFzEUiiogXH+9H3FjHJxBHjw9Edjhkg/1x9tabO+2B+x8VF2RbT0+3S8tH7r7VrrrmAiuvKLaKqSVSZfMtNzfP6usbnZvy8grtwP5D1tTUalWV1RLbApcWf+CYmKenpehpIoyaeLKg6ybquz8k4sTH0xi1V/8zgIkJyWLiRNmYBnvmqVX25IrnpN5SbGBwSIycY/d89C770z/7lJ29dKGVlhXYlKmlGqcCMW+LpGyfpWkM2traRMhsmzt3rqQsw6LDwyKuiOJ6X0zgT/YCLaPijGE32L09I/bqy2/a3sOHrb2tzyLRYfvwh+90XRlKioqIvTL66M8kl6K//bv/Ls6K2uHaw9bfF7GXXnzDVqjBtTVtMnQmEDGgekNSgVhVCDP+kMoT4U6U8TT7gyg0SIMlVexNG0FyzBobOuyVV960Z595xRoa20ScZNnkTrv34/faPffcKaCUbsMjQyLmiIWT4hwI3H3Ph2zatAonyqRJxbZv737bvXO/VF1UJmJEh9Snq5IJxJFejQ6KCAM+kDU1GP9eK8ku02AP2PXXLZdoLrS4RBnG5FFLSY0XCOi3BAExSaQtWjTb/uWbX7fUtGSdC1l2Vp794ucPi0BPuW6O06MiEaG45CSRIiY1sSOwR8Hxh1kGhwZlzDVwo4GED+tr7aHj9spLazTABy0nM8+OHjtuf/M3f2PXX7/ckqUcGJfk5ERnyESpjwSp9/LyYrv1tlvs6NGjrmneWLtOqK7JBsTQEDcUSg4eqLGYQJwQBkkV9A/02IED+23Hzu2qMMErn7tghuUVpFmaiBIKD+v8iB4MQEh0AoVlxxYtnmN//d//0kV0SBzQ3zco+P2CvfbaGgcScXGgN+lVAYt3J4WwHdpv7Ph9lVHpkl93YBP6+wcFDAABJoDUaCtXvmBbt+yy9PRsa2vvsAsvvMA+8Ym7JRGC17pmWDwXuCV8Vz0CRVlyPebMmSlQVSwXZUCga1Ta5phAxJCPYUjj788Uw04gDkI7KtXW29djzc1N1tLS7Di9oCDLysoKnRsSQoLN0V4RsNcRGI0YEqIGzKSmhqTirrDlH7haBMoSF4TEIcds/fqN1tDQrAGHKHHyE2gwoz/xOEGQ2OcfUlHjQFW4GD3dw7LH623jhq3W3SM/JjoqcLTQ7r33HtkVyRU2ViM7FBkUCOqXWh9yolJSU5OssDDfKioqHMniJ2GHWprbxczSIcFlXiYQhzIsSnd3d1uTiNMpuNbf32llwuLlk/MtKWVUBq9bFYD5kwQNU1S5xJVaNKDh5Hjp2Qy79rqrrXr6NNmjVDW+yzZu3GCbNm2WGPMEiZmguh+6NzjGKviDLYLA0gQgT8rhw0ftjTVv2cGDtaJZvOxHpl166cVCZ3NNFiAYiySzJNnYxMSwxoexQl1JvUkTZedkWnVVlcZD0iGfpu54o5i3VX7leOKcotaoFcTQI2jc0ozUDNhgpEdoI9/y8tMFf+UVS51hGOPiEoWCw657ATIcESGxcNKoDN9MO/vsM6xoUqEjj5qaQ/bGG2utWQguKjFOiAfLjyeQmiE/yUuMRrHPP5ACEfBReroHbNvWnSJMjSQiYpnpmTZv3lxbtuwct8Oo+L7+IWtvb5UqE7gSEwO5R0foc7wzdnJKWOhtqt8flp1pltR0tHc5YU466O8gDo5nopDakHV39UmE9bfUXG5+pipEJQ1bSJQGRkaGEmzv7np75KEX5BFvE5gIauCatPQ4O3fZmVZVVSHImOSSuG3bDj8iQyg20I4aO4rzGiPSuKb8gRGGBiE1oKljx+ulBbZo8DsFbpJtUnGRXXTR+TZj5lRXZ4nqChGT5pZGe/755+zxx1fa7l0HLDJIrER1yNmEYfFthmQPwgIAEJyQmAbP1WFQJhCHEREB8HEGRqTOhqQf03R2RAZPIqkHQnWM+OhIyA4fapLj9Zx98+s/sO9+5z7btmWf1zIi6MgDZs+ttgULZsn2pLpRbG5qtrVr3lbd0UC9eUW6MHacoIj/MHb8ARU1Jyo1tH/vAdu5Y7eI0yFAlGKVlVPtrKVLTMjYDbo7JMND0hYH7b6f3G9f/9o3bcXjz9rRI21un7kiQZoHX4g6scMD/RGhtSHXQkG3GYtTJGdUg4QDOhyN87haUjhFF8S5wzQyKgfJ7wRGJtq6t7fbyidW29HDLTKMu+2FF14RJ0RUrx4u7snNjZMOnifVJidUehYu2bptux071igC8bBxx4kS+wPF+44f/4+WqIx+T3efbd26QzaizrVBRnq6VNocq5A9djAjBk5IHLWu7jbbf2CfCFQr1HvIXn3lDdu6eZeYGskK7E6GA6Yk1Tss4CBkKyQoT2NCmUCc4WHJyTCDn6CLI65nKWnpaXKk0Ici1WiCbkqy5sYuNbLLMjMmWSg+3XKyi/Q9U3VILAgB6b6Zs6pt5uzplpqSLOIMW2tLu21Yt9lDQ+8Y+xPfYz+M//H/fCHCcURAYNvWbUJgg45EyyeXyb9bIA0TwObosGz0UJ/l5uVYcfEkjVu6XIhUa2vtksPadqJb1IXUJaek6vqIEwjAMUIl48oE4owIi4+MEEMa1WAS6oaUcjhVEXYGdMbR2NAux6lOlQpexEUtPTNs5557tu4TVExOcwLBBQT85s5ZIDST46JL3Omtt9Z7g8YXxN3b7aCAJsVsEI1FB/6uB/Wc/sBOjrpmeOe1nKdgqPftPeTOOVKSm5dl1TOm2vQZla7GYd6UlDRJVL8lh9PlD+b4mKWl4vMNWV3DcanCXgcJgJ+E+JCDhWHZoNGRqJ6tMYknys/TGA0JwXhHi5sQPSeKRDScFESh40Ebw8SShA+l+kAXzS0NFhnpEHrrtWlVhZadK9XHtIAqHZHni2GkQ0vOOMcWzl8iSYxaS1O7UNub0r9HpSbVdS5XYyISa5xWb7eez6e3hUGzod/xwE7S+dMffX3dQlg9Qk99GrxBnRM3D8vh1NHb1+Xj1d42KPW9TfYi0bp6u9wBr66eLBSb6GAIXw/EWpBXqM9EfZZbughEX/oH+uQz1jlIAFhEGR99xsvehGSoYPLoSI+6DLPrYWoBYAn2PFFAESEB9LAIkpzCJNKIBi4iX0WNjurSMYbq7RlwJ9TiBuWURiwnN9WNIQUaUw/chJTmF+RZWXm5VJugeGLIhuSQrd+wwRuNbYILifQmqGfc4zzCc7zQ0v/9B+1KFvIiXI+B5oAIRJ8Dx9ncD9mxfY91dfZYdGhQflylzRHo0a3u0xDp7+9Xw7lYR2ZGnk0qKpPKy1Bf8R27rKury4Om9G9wMCqiyHciiBoSjgvHCe2Jyt4kKsF8jCtuVyCQ9GlqSooIEpV0ROSMdrqq8oHTdZ2dHf4g/kqUiBDAo3OUqKQuISS4HI+6MDlcYZs+fap8pSKXSMLuq1e/aAOC1FzANR6GlyElQIi0jDgXqDjMRlp/1wPIfvojnJiuQUJt65A9jdO5eBOh9D0xnnEw27J5mx07Wue+DoSbPmO6z/4GzBUc0eiAawPGKT0jTWCoyCcmI9ER6+3t96kUADVaqq+vV0AggNUhCUNSEv5QoLlUgx8TiONUU0lISPDBHopIVlW6u7r90xuhz87ObuvpCR4E1+FshscqH1ZP4mSHCPFgj+CoaZWTpQIqpTp6JS3xMqpbZSTb3EZBdGYM43WgTpiyGLXB4EHYoN/5oJ73PlBH+j9gPs6NFc6F5OHz+fprb6r9weAXFxfblIrJPqPJ5diR0VE5lEkMkJRpZMTVekZGuu6VYy/iEL6JOJoNiIMkjbhPYZakQUqRMDDuweODfycSxws4PN6JExFxwtKNUJkK4RJuI14UQcmKWgkS/Qx5yUKH/rsbUfS8VJ7FCburNxBvxoxqvxc1AQfV1h6WlOlqNzz8AMtAKEQ7sBU+Kr+PMvac8cSBcbAlOJbkD2zZul19TPL2TpkiTVBazFUixKCOPrV3yBkxPl5uuyQIRmYqPxg0GQj1FVSGZPCM9o5OEVrndSJZaNbjdmHUKE+nEadKjgo/JieH5dukuhSE9R0qk3wQswVBB8QTXOy10YDgq4umjCzz5sOjGNUBOWjpViFOy8vNdeNPvGn3rj1jEd6x0dBdkjuLSxhRx5gtRWr1wLHq/8vHb1BoAkx8Mq4VI45Aij6bBGRwojHgEIe+TCph7h8NQVJGACzIK9Bdeu6wSw7OZqInt8g9Uf0ESLkfSaM+J5q+p0vCMqQGicgwE+2DqeMdxGEqmpA/WJ1C8K69vU2OVbdHnulIWNYflIEfBMH6B8hIUZs0GOhjIgJMDIDaUC1AxqLCUqmCKo8+JCakyLjuFTjQ7yPofTpAjI3chcAI02iLQ3p+xyOewaJxpz+GpZKGR+R8SWLjE0CISD+aYVC2sce279gsQnHNqKBxmiRniuXn5UtKCOuo1WHUGYSCOMNjYRwRRJSNAYuYm+CMILtVX1fvhEJ6cnNynEDx0lgnmFVEegdxQqo0MzNTHn6OLubhCdba2mqdHR2Ci0Bu4fnkJEtOShZjigA60dst/K4xoATEgedpGN4wc+MAgzx50pXqZLzDTubdB/pFAF07OqJ7RtC3xCPEPdTrbEylSNDveLiKPf0xOiqtIDvnaUoiqKvkeP0t6e/r77BNm9epngD+lhSXSnKmSg3JtZAPxHxWPE63p5TRXjGm+guBB2SjKAGBEsfsV7yIOGyNTU2SJiYhSS/LkmlIHatHY6JzHBOI40QTgVNSk6SKshyxYX/aJDnM7QxJtcHQyToPuvB7NIYdnRi34HsQ1CTrhtm/ZB2ChKozKzOAlqMiDlGIpsZ2Eb3Hicp9I8PcR50nEdYoaEqoyQ99p85hXXfyPNfADPw97lo/P3b/2G9cN0z0Q0dwrc6JKWK/x8cJ0OhekcDbh0QT6if7a9++Q5ICnRLDFE2a5EktqG/CVUgEw4bacE2ir8Bl0FlPD7Zaf+t8shAZsUquZ5Ktva3TUTH35GTneBQGgg7LIYXAapju80rH7IdqIr8M3ZcvtUZcDCIwt1NTWyPPfsiNeLoAQFpaui73ZskHaPRP9CoPZ8DpLAdEE30tLydFkLtc3CnCZ+TLVxq0PbuYO0cX6z61x4kUVWeHIUaybFKCRQbjPRbHXEdfz4gN9qsL0WDQ+YxGNOjRIJoeHYr3g++c4/5hrhURuHZQdfT3agD0O/X298lS6HuCIDRQmjqjQ8EzuZ97CPUTeolKFbW0t0itwZhht5s4lIT9aTfReoSdYU3Q99aWVjFth8Yr6sRKz0yXNsoVmBqyOqk0GD4nJ1fMK1ekeJK+Z0NfjaFUcUDuiZID1SJiFWxKaVmJjFSGI7ahwUGHvlEZSCrIyc62bB0QFATSLbXW3NzmdeDpE6ZhSgDCxCQK5JOSnGrz5syzzi4hFTFBQ2OTOKhH9es+HULa4japyZ5hk1NtLY19tnfPMdu2+YAIecQa6+XF9zNoeq6uH+gTFwrld7QOyQfpsH176vzgO+f4rbdHDp+IwqgR4ejpGrXaQy2q76gdPNBgDXVyDjvkd+g6nt/XK4kYYHogUb9129bNB621iTZGLE2oajLARvZG9NGRLIkgco/NFJElaQmSvqFBfKFkaZtWa6iv13gMy65ke6xtUGPZ0NBgx48dFyGGZbtD0iqZgtJJDgqSZTICEss2698TxSknAsXHhx3LFxTke3YIUdTjx4/7oE6alCcYWaqjTD5LogjTbUePHrGamhqbPjNXIyAoEIduDcubHtRnkkk9S/r6bcPGdbZn3y7p7SLr7mm3FU88YVu2rPOUq6VLz7FFi+arwXG2bdsu27plux2uPeodRGLpBHlws2fPtiVLltj06hK1Z9hzv/Cb9h3YrwEmL84sNS1Nv1fb/AUL7Iwzllh6WqIdOHBctmOTUOJua2ltdp8jSQORlZlts2bNsnPPXWozZhaJqCO2fv162759hx06dCjw9UZTrbCwWGq4xZHrsWPHBJhmyIgniPByJDWKyRpc1BdqFyBEJKGpoUXqrceyswosvyBXRM0Rs3fq/uOqq13ETXeJKSwMNFRQkJrgmJCOi86LymuNDoWtvTVi3/vuj+1HP77fMjNSrbyiwP7yrz7nSXDJ4UR74P4n7V++8V0huXb9nmGf/PQ99unPfkhGFKQix7W7X6JOkmGn/fLRlfbE48+4nkXHDkgsCK3HCzbHJ0hServFNZlWOa1SHJRuR44c131SlZJAAAVSCpe1trW6GigtKxWBi93WHTp40CUY1REPdFLBuQvyG0Zt5szZlpmVZcePHrfGRnLrAuhKmhZZRb19fe4mlJeX29SpU53ZDh48JHVLGq2MuFR8m9RZdpYcSrWXnObklES78cbldsedt/j0PSgO5IYKgyiZGdl2308etB/+4D6H4aWlFXbXXffY3fdcZ8fqDmlcf2JP/OpFaZSQnbXkbPvzv/iszV88xZJThRYTIyIyqk1qc2JSoQ4pOoz6cCTeurt67fkXVmlwMn2OYvr0SiGuKeLMFOnUHtu7+6Adr6tzh5VxOf/CpeIAjJwGKy5kmzZtt29/+7v21Mqn5XR1CHJLLclh6x/oUidH1ekGh7HMFzEQTCnU1By1jvZu/Z4sO9MvB7hPiKlP6lKOqfQjKa18bxLaaROKZEBwivvlKA9okPk+oOs5HyeCAWRIMukSx3M/Tl+v9B0JfYShunu7NPDZkqYWcfRRodJ21Y9jSXIG+XqSMBFyMNLrORW9uj5OhNi/f78dEGPk5k7SmExye0P8MV6qrbur3+677wE7oudC/OlVVXbZZZfa5MnFtnfvTnv2mRc8F5DUswsvuNAuvewiITapxZDUYTyyIlsgGkxQazQcA4EBT06Ok5jPkH9SILUi5KFGHTx00MUa8UTtVVdP98QNxHj79u3i4hpbfMY8ceKIHRX3rxRRNm7aoI6SUJjoIYpplVNsytRySUqqGt6lRnY4px472ugwOyUpU4Ahy5MgJleUWaGQEdCe+N5BDcbhw4eduz3UobaGQglWWTndub5AbaWQ/3DoUI0k8IhLCgSly7n5+Xr2FM98Ye6JOo8dP+Y5ZI0N8mN0LXkQuAclxQU2f/58SWmZ7GCniD2g/u+z2hpJlfy69vYhV7/PPL1KDJkuCZ3m45aWEmdr1+yW+twnIEP27LCIUiatUOEq7pjMQ3NLi9pNtD9e7Z6i/oFO1cAxgDX2xynEcVUgQ+TEMVcd8+fNt9UvvyhxGpFx3iPD3yIVUCEC5dnMWTM96NnW3moDrZ32+uuv26w5VY7n161729auXePcmZqSqusLbNmypXbW2Wd6InxGZqqH6ttaO3y2cO0bm2zj+m2yBfGS0Om27LyzbP7CannihUJIImRvrx0+ctjWv71e9b6hew5aanqKnXXWmXbpJZe4LUK1xfqxa9cuW/3Sy7ZeNokkyeqqStmVc3X92U4cIiA9qhPjvGvnDntJ1+7YscO1wFz1+SzZtcWLF1uJ7CsJhYzXgf0HZCO32Csvv+rEr69rtg3rN2vwK62ooMzy8oOEl1defV2SKb9wMGr5+Xk2a/ZMKyzKs+P1tW7HemUbo5Gwxm6STZ8xw6PaTCOMSkrjpOZxPSjvWGXgnrkgJQSCkM1NXWr4i0IaEldx0Ly5c23atGlCKUmCnAlW31Avjj4gJBaSamiwCy8633qE3h588EE5muIeoZOcvGy7/PJL7NbbbrQFi2ZL6vLF5ZnqTLYnSFRVVdtkETw3t1DgoNouvuByu/hSGejZsi2lgu3pYUlSiga12ErK8lVfmhVOyrazz15k115/lQZ9sU2tnGSZ2WKC/AzZAYGWskIdkrqsFJtaVWoXX7LMLr38AhFc2mBSpmVkhTVw6b4KYHLFJH3P9HVGC9W+K6+8SCr6bKuaPtmKitLEWOkayHR9B6nluWQ1NjZLerqE7IRwIyM2c8Zsz+87drTPvvud74opu0TUAQGSxfaBD1wjm10kf2mvvfDCs1Zz6JgYJmpz5863O++4Q6BAvp/GPy5uILDFHsI5Ra0RZojFfpj3F1K0xUtmS8dKxOLTrLN9wLZtOWQL5nVIPRXZ5CmIfpWt3/C6i+nBfY320gubhKwS7dB+qakIs32JNmfWArt2+XU2Y/pUN2zMgeAdJyUlS5/HyTtm/iPL50gAR3xPy1Dz1DoAw4hOksOQIthXPb1C6CbbLrnkfNm+VHUsRyqOmBTO88nu5ORlCrycIc6cKuM+4KAF9Uh4imfDiNyXlhZSPYUa9Iv9evGvuxBpQnyoTiSGTE2Msdw7q6yqsGsSrpZ97LDebsH1vn4N9hHPZZsxo9wee/wxt4cAiZykXBFHkjq52no6RzU+9bZn51GNi/wxqc8lZ82xzFxJgR4TiieuSD/GxEakCfTAWAFJEWYgtWdEiCEkcZs1u0IDUiURjbNQXI7Uz3bbsU0QE98k2uWJhgWFWd7hhLgse+jnL9jTK17zxUQ93SOShlI777yLbfacSn8GISCKTzrRcf9PhJKunlSSJQ7LsiwhcmlGNVYOngF54zWAAhrqAJNS+SLO5Ckl4vRsJzSrzEY9liad4ofUg87xW9GkXNmZEtmbDNWpB+q3hMRh/abv8UJGfBe3ZmQmu7SR2Yq0kW7MtaNxQ/7dQ2M6cmS4Z8+pEOxfLEkREBgW+hScfvut9fbss6/ZE0+s8OuIHuBuTK2o8mn+moP1UrE7rEm+G6s2SLi8+LJz1CbZuLh+tYOAMNEUHGxskGySj1Ss0HYIRDa9OJUIKQuAPnLXh/UjUYQE6d2DtnnzFnvzrY327HNPSmresugIkdkAurLKYOPmjVJ3x4WgetynmTq1QnYIW6BHiGNP2D0v/BE7GBAawXkuHhuR0x40/93O/y7HuDpPPF9fR0F/hFfE5Rq/qVOZos5xmH38+BF7YsVj9v/8t79y8BARAGLaG+BAzvmuXfttk2zVjh07pSlSBIxS5VvN8AMiJckk0F8cfpg8aMMpNod20BTnZhGH8ITG0rKyiuy1V9+SkevSBaNWX19nL73yjL3w4krbs2e3Rw4yxA2gLeJFBBFzctItIoSzcOE8u+DCcy0nN8sNX9gjuMGzAoJwxErsB/9RhUa+90Eg8d3O/zYHDHni7xM5dLG/g7YwfUKkmcSVQWkRkvR37dhtB4RgmQoh7MLSmXYRKys7w12KeoGNjZs2CXYfkC3C8WwVYCCY2m2f/ewnBY5mO0HwC4lBkhIA4xJgpQ20YEJxVQMDAz/1x8DAsOVkZ9k111wtXZzuQKBDeL9NDmFOTparFvKnjx47JEBQZz197bpvQJ+Ee3plpJNlzDOcMJChfyCiOgdVP88InnPyM3aM/f0b/OeD9+sOrnuvYzx/eImd5zMYoq7uAE6jZpEcFiqnZQgUDfVosDul4uVrDTL13CewcFx+XauYW9wv6HVIgInoSGNjg0c6CJ5effVVTugBSZe7MCpMGcQQJ+WdxBn79OQG/UeWCQ7S/AXzrUCwELHFt0DEjxw5KC7qsSuuuNj+6Yt/b/f95w/s2uuusIqpxXLeen2RKourQtL1MCciS0YLcSRU5ukJMzY8se+nO4Km/vpCp97roLzXd5XcXKEB2eLA7kkDiNmSNDbYpf6BTkeGH/nI7fb1b3zF/vGf/sE+9alPyEfLFSO3qM9DHj8jikAK7733fFT3JrrEEBkBmODsIj1onlg5ZTW12iIiQklAQXx8oNYIMv77v/7SfvHzX4kjWmQ7Bi2/KGSXXnGWXX/DtcL5kx1WJ4fyVUOCGtshSRLhBCVxsnDCQiHyC0bci0fkiQicHAGG+ZShPmVwTlcm2q93Kb8BBSH0+DK+Tv8ukBEdIeeMxPNUSUOq0JZJIurdBqelAsnlAMvuEjDuEozmvob6JgGodfbYYyvtSG29+hxEsz/16Y/bHXfeKMmLF5FApcMiDvNKmBJidIFamxhb0zeXMHE1Oc/Mn8SNJtrWzYfs77/wVduxfb+LdmlpgS2/7ny75fYrBKkr9EBB8GjYI75paWFdw8N6nCP4jXAHn0BTYDqJdCcDfe9BmF9XaO/Y1/csv4ZA/nPsmlPq9GkREQeGI4+PbBxmcFlFzVSEr7uRWnBe050Eh4HsTFrikLa29tkvHnzUfvazR+z4sQYRI9Vmz6qyL37pCzZj1hTdMSAiMRkHwgNYhXSvKKYGTVBrThxapn+ISzGYhPrx/A8dPDRm+NPlY1xiN9x4nZWVlzrFUXFA34RQkHUC9A1L5AlsMrdOrAiDScwKLg0ClIxG7BhXxo/Mryun3Pquxa/xTp3+ACHGin+PHXBq8MkcDlPVQc4459EsQH71VX0Htkeksln7CejhbxLfc3NT7aprrhQoWubqPKwfCFe9+uprfh2zAMyhSU58XIKFwUGZQBwGjod70JDvwr404IVVqzwOBaqZMWOG/Jbz5MlPc2mIJSUApUkMYf6ctY88AtjsdkSVcC+SBBpiqV2wOJVDz9PfcJlL7bgCo7Bu0hmGokrJG2OCi3CH+uQHP9Pe8QfXBrfxL9xNW2hncHDOB1nnCZbCtexewvWoFzbAgJlgKurDULN5A046O5KgnrCj/ht91oG0MF7UOaR2cp6DCMR55y3T2E13rQLEfvbZZ1UX6FVqTDeh7nF2fRn9WHkHcWg4q6IRZw6y34kp0R0Gqaq62iqmVMjzJ5wvnSn0QSeREOwUM6V0SnfLcAaJIKRP8VDsDMG+OM9IoRGxA2So4dK9ars3mr95Jh11bmbAVXz7F4/akisWLEuhva4ux45YjDD4nd8irkqDpEbZD30yqch3nuLE0hGEr6h/jJAMvo9QkHsWJGmgnsmLCBrkjKCClGDkY4xA+5KSAnWXIi1Fatis2bM8TsfYENWGyRgTGJhJSwrfY2UCcYLiQ6KGMEcRL8jcLh0b8XRaODs3J9/SUzO8UTTSc6/UMDgKruCTpSTkePlyO5+fpzOJprFyQ8pScW8Cjxo7Yk1youg5EMjPkw477m84NuA2BgKJhLhBFpAfGkCvUp8x/8WTR9Sm4KA+wie0W0/V30lJaWI2llCSj0DbsAFMGDLdjV8jlEZ+AXkFcWSGYovVNg49gTJM+pH+AioTBWe+iHYg2TQjLy/XWDCFdJCCG5GJIO7I34w1Gmg8jKacQhxoyn8B5+B4MdiDAuRMMYP7vfPeSS4PEBgEguIBFNTvaidLCzFpYHmybQj39PSMWHNzlwxjs9XWNNmRwy1CNJ1y3JiPCaSGzlI3UjSeUKgz1shwBflfRJrJRO3s6LLWljZraGiyY8fq/GCijhlUlvL19PS56iTphMx+JBimgnkYfFZVBGo1YCoI1tc76Atojx6tk609LM1R623u6YpYb3dEv0MMGAUGDdqIBNBepvgD5ic/gb2DUNv0ZUyaUYu6yaWFXDP6A8GwN1Q2rrxjYyLwNuKPL9PXK9Q1mGhnLr7IUsKF1tbabzfddJ197ON32ZwF2RYfQj1oVIVm4L7RKIkSZnX17XJQsz2o2dk55GtBWQre1tou4rR6njXfUyTvZPlMKir06HR+Qb78gXRPZExURRhamAnuY5XCiEaEpMSOjg45dE0iSJ0TgYxUiIDtoNOsfcFhJtslJzdH/kaRFRYWyTirTUKJcRBIFWNbyY+IzZqiZjo7262urkHHcdXd4oFNfmewS0vLjdSowkIm2KZKGuSEanxJdcrMFGLV4BPyd5UoxmReC2QXEgjYt+eoffc7P7HHfvW0pQrRpqTG2YsvPWUFhRmC6cy6ogKhqihODoZqOAVKSy15/lWgt5lbSQql2vXL77U9u+rEBfE2b95M++SnPmqXXz3PklNl2IcD/J8UTvUECj1DHQq4qkuctmPHLlvz+lpf+sF3CIO6YZcpgi80CnGfM2eWLVq8wObPn+s2jXQhVATT0kyCkWbU0QE3H7WtW7fZpk0bbefOXSJQvasDnDd34EQcEvBdZWjAJxWV2vTpM2zmzJkOYgry8y1DUBcC9vZ0O3GzxSDMlOKz7Nq9y6c6mOdhqpr60AikgzEPA4EuuOAiu/yyy23e/PmWlUUarYnJpOIdwQVaBynwGWWIJ83x3LOv2r9963u+gVFyUqLNmVclp/27Yp5k6x9k5pc+QJTTEIfUUgJ8GLsBdS49NVfIyuxb33hQTugD0rGpbuRuvGm53X3v9VZNQoc8ZNa0kMVJtiYiTqmvH7AXV622hx56xNav26gzEKHEfYDBgUFPqoO7w+EEDXy3Bqfd4sU5UyrKRaB5cl6ZM0rzbUhQFwcPHLDNWzZrAPfr2m4nCAOMro5xPioYyaH9/A4QYSEsWf6u58XmTHGjeiAISz4w0IT4BwWDJU/O5RCZ3AXqZioEVMoRMFaC1GmPjH+yXXvtcvvEJ++1+QtKHQgRPUCLQBzq4FqIc2D/cfvhD+63h37xhJg3VRojZB+66yb787/4lMl/1Vj3OMJNJPJyOuJ47GiMOAThksJZNtAbZ9u2HLY/+thfWX+P9PFAl1VXV9inP3eHffDWixzPE28iQQ9JIKWptrZFTtcv7Omnnvak9eysXA3SoOdrofODHC12Cul1ZIc4p6UlezIjPhPJixhh6mS9JCUtJdXnbyACeQW9vagxnDapMXE1s6WxZShIDXkHnnEpWwM3xowu6bTM1WAj3FkWscgiikra+sfuoe/UmyS1m5aS5pk1RJ/ZUyEzPdvz9rAf+D4zZ02z666/0m6+5RoxlxhkVETW2JKMGSUHT2BkxeNP27//+w+k2mp1f4FlSNq++a0v2dJl8zxpJD6eKY4xW6+2niZCgBQAp4CRUg+RBBsaCFtvl9ntt/yxZ9IQ2ENaPvWZ2+0v//qjjuMhqMbD4jUQba1D9vWvf8PefnuDHTtSrw6TwJFuVVVVnv605OyzrLS4TJyHpy2CNbDOcpO99fbrtm37Jk/IQO2RLepZl0JnTPwNa8BIU2KQSc2aM2e2TyPPmTPHJTCbrEkRTzfLVvb59HhXd6/vS7Nz+x5jLwSSI4OwfDTwK9Rzcs84UEMQrrx8su/iRP4AOdEBQwyLIUgBO2wvv/yKvfbaa57HAIFJuJ89e7p95nOfsPPOX+KSgxPOJCFAg1Vu//qt79qPfvifNhJlmWHY8gqybcWKh/Sp8UUIUqQARRySStjfAbDyLsQBsQQGjSBfNALlQ/Y//vnf7MknVvtMaP9At51x5nwR58N25QeW6ndWaJHOI27UwHz72w9Jlf3Up7TbRajioil28WUX2Pnnn2PVVdOsuCzXk/y6O6OeT9YrP4p85a6eRqmttSLUXiElGfhuITh+U0GS4VIkrqyszGbMrJYdqRKRSoxFStg3CYWI6Jc76gMhEd3o6RmQO8B6ovZAfXa1Sap6PTKO9KE6MzNyJQ0ibgqzpTlSpVn6OyzCBLkUwgQCF9jQYWtppZ0bPHllnRiwv2/YJ8/Ie/jyV74kJsyzYREzMYzdxgbF2ZtrN9n3vnufvfLSegsn5MjmpdkdH7rR/vqvPyYkPCzbDRCQasZmsfkG7gEkmEAc2Qu4CVxO9BgPvquz3+68/aNWe6hRHBm1aVUV9rGP3W3X3nCh5eQFzhhwNDIYsiM1Hfrtj625pVZ6vt8K86rs6itvs2s+cJHuKxY3RW3Pvh1OgMOHWgVNBy0lPcEWLKy2yuoiy8mXOA+nC64G+cQMXmBcsS8hSYhsUHampCTD0tLZYSlor5jstAVI7r6VOJoVBwMiDDYS6QQyh8PpkuA4DXCuONusqZGMnKPSEnVixD4hyBxJU4kIlmal5UWyUZ0+RbBh/RZ78GcP2Ruvb5elytbvuXbHHXfYZz77IfVJ9ltACTPBrlF9vSNS8S/aj77/iO3efkySgjqcavc/8D1Lz0wUE+CkY6wBE8BsEUD9OiXBI/YpvT+E7o3azh177Gc/fcihLPrziisus+tuuFYcnOeTaVQU7Ac6bA8/9KQ988zz4mCwfJxdcP6ldt11N9rsuWVSexHPmvnVLx+3V15eI0RU65NQhw7ts527dujYJvUSsjmzF1tVZYln6BSXlAi5ldq0aSVWPrlIcDvXsnPkMArtwGVIuey8StCxIJow7nD2k3rQgZohvMLKOhxEVC3L0FOSMwQMUq2ro8/eemujPfH4k/bUU0+prW+KibbY+vVv2/btW90ekQHLWtnMrHQrlmpmv4aDB496Dh+ryEl7uvDii0VQVrzh/wWSkyKJTNZzWpq7beuWva5ayeE7ZymZSPmy27QxsDkAJ6IolInE0W9A+lEPgxDeGLXVq1+1VS+8pM6l+FaSy5df42vv0augE4gDdzY3ddvXvvKvvpECtmtq5RS74YYP2hmLF7na2bhpi91/3322afMWdYKtJoNEQYxse0eb1aljzBwmxidbWWm1BkBOo6QbmCqT49LsxaUEwgTTxvEk4Z0gximHOiy6jB3YUQYA1R0kd8Bs5DQMirHeWLPeHn3kcdmUVz0wya5ZHV3tPrFIEj8Ob7/8qKnTJotBBMWlDlmM29HeZ3t21uh58Z6PNn/+HM/NY1aUQff2GZGFsLVojLZv2ydQBZjpkb2cLq0xW8xNp2gXau3khFusy16oBlgKxWOTPrW1teoUBjrBykrK5CcUigMRQxnTJJaIhKV3B+TxH/GlEoQ9SHpYuGCxzVVDM7PNDtUcteeee16QeqsAhhqshmbL2Vy8eL6kpFJoLkd1ZdiO7TX2q1+tsPUbNzg0hTAeK9XA4n8BVpjKgDgQ7qTU0HJv/SlHQET2FA2i46ChoOCDsGkfIX+0w9NPPet+GDA2JzvXkyYnl5dZ8aRCqaxM9e2gPfroY7ZR6oxMTexaaVm5LTv3PE/tYhUCmofcbdJ7PWqi4WV8UFWEfLIEWkqkDZIIP6kDR+Sz0RLGF/uEJhhfJhCHDuLlchF4H0IhzoQWyOpMkYVkKTzwGW6mYqLMeMLHjwkma9DZ4pfN4WbNnOfLSJgO375ji61a9aIbaDJLplRU2j0fvdu+9OV/tj/508/ajOmzxFkpGrs0a6xvF3dtE8d2e1uC5YdAWyRFIyKgwkDHnOWJRHk3IgX38D0ImJKkwaHr9D8Qf82at2zzpu1uY7NFmKnTKqUhrrMPf/jD4mxpCanBfgEINq1bteplO3a0Xv0PSXqSrbxssiRgrtoXZxlpGbZnz17VqwHXf+yzRlSdqIkTSNAWuA+DsLle4ChjZwiJIeWBCo6VCcThdKAC+Ie2j/pCIY8WCPK1t7X7VVynP08ACA4aQTAPcS8qLLbc3HxxBwntXZI+siMbdV28JGfUbr/tQ/bZz31EUDXPrrzyAoGIP7LpVXMsPTlP6jLdEyFIqSVsj372kBK6U2V8bIxYmWTrNAddIzCKaqHTgTqDMMTa2M6EPnS09zjsB9SADtEGt992u/3N337WPvGJO+yL/+Of5QKcK8ZLlKpKs92797qWYOMmxiE5OdUT44liEBqqr2c54YiuDQy776dNS9RmYmkEkvGvaEdRYaGPHW302Jok6LTEoRo6QuJd4HWzd+ciGT7UXFg2odGXP3R3B79RfL5FRKLSrl557uIQiECeMD/09XdJmvo06KniQPbIKbDl1yz3MDpZj0gge1CnZ+To8iTr7yVRj+3EhATVYOplUH0DH4EKDo8ojxB8ReeJQLED73rCAZHobNBY6iIcRN1wPWtsiHKDDMmmweGdOqXSFp9xpsbBBJshVpJdffXVujtBbU6z3p5+z/TkE35BdQ3oXuxRt6A6TjWpw6g9csMhEFECfC+ccKIRSA3O70KNbcA4UuE6R0tjyR6UCcRhxJELQh0U7MyCBQtcJ+LoEX969plnfS4CIw9hMGbEhBDLSXmF1i0CwR09ajxPS0tn60V2ohKBNRCkrq7fsEX+DWF0MYGeUycgwKCzNoc6CYjCSagHpIS4XaoQDwY4SdyL+gx2N9cDdI2nMxHyYBkhhxNLI6+DUL8spnM+3new8g4pDwZBroSHlBjcQfYZ0Ih3d3WKucwKC5L0GRBjVJJFO9gbDWkhMQO7SPgnQf33TYU0sFVVle4Mk1QYCydFxEw7d+6R8/q6E44tNmG8+fPmOXPEik+5UM9YmUAcPHBuJn2VuBRhDgb2qquu8k4khcO2bdtWe/a552Qgj0k00fvcOWpFRRJRDTUxKLL7IRaqI1lqghlAvPrevl5r62i373znO/bQL1bavv2NtnLFKnvgP++XJy9drfuBqahSJBWu7Ozo8YxKBgem6umOqF4YR7TXs4n9ybGW2pQHf7hNR6vVHWv3c5Ehtn9kPRA7aCB1w/o7kEICrn19o1K/WZabl60BA6In2L4DewSf12lw1Ro9jyUu//Ef/+GMhYQR8wOGEx+ksNJ8965dYqI4GxjqdxUXIEukG+CS4Kru1Vde8ZUYqK7mlma7+aabxJzsxhVnrBqMBWo5YgXZP1F85TMJBoKBzAhi0NjQe+7c2fbyi2/JUWPZRqcas0N2ZJHNmF2iykY8JgZ8ZHDz8wrE/f225vU1tvjMGVYsWDxjxiyht4X2YvMaK5GHz15kX/vqV+173yeZDcic4oQGJebmFsnbrrb8/HyH2plSd3SgT564R4eTQhoks2OHO+Ub7ZJvss4T6VmBMCJKARJQE2TBkPnDvpvnLF3iGZrAWuoiqwgVwjIXvPUzz1wspLZbfeuRz9Jk9933Y1v90rMOQOobyG2GiPmC+w3el2lCmFlZyZL+YV81sG/fHtUjZ1a+YWnpJBE5LDVONH1IjBBxxLt7zy6pvR7LySzR+UC1InlhUYDFXf39PRp3+WDy4WLlFCc0UBNulOQ3QByQyYMPPmztrd3SswNSLUlCJzNsydkLrGxyvhOH63lbyJ7dB9xHgKVZiFRSNsljVQX5eNgFMvKtVnOoxliElJwSzJv7/Ex7p8fCplZW2C23XmuXXHqeVFvYG+oc2S8bJxsTlgptauyXal1tP/vZw/bkk0/bhnXym441SCUNOcRFnWKsWR23b89B27Jlu+95QAA2NyfPuZ7uEXVoaGw2NrRDRbW1t0v6jkmy2faFtbERYy1Qs4jFnp04qeeff6HdfsdNNmtWpWxRolTVbveNdmzf7VqGyPKf/dlnrLS8QMRhpZukXGLeLtBxQE53bc0x9SNRY5giE9FmZy5Z7En5RPppE8FS/C8ff5WJ6bjip2CmM/DwWfn7yMO/tCceW6kO5LlPwLsMbrhxuS1YNFODB2ECFITOZzn7s88+53qYCTBgOItbMbIFBUWWmZ5lUXUc57G3t9O5CjEvKCqwM8S91113jV122flWPjlH18hCYEJUNbOTEKarc9RWPvmcfKEnbd3bm6yhrkWGXGiOJBEZXXZiYsYU5MXaGN/bWtzNdaTDEn0mJsceAhhuzBpJKb4MEYOsPjORhwMaUzP4QvTt3HMusOuvv8GXiGRlp4n4dWrHL+Wgr9bzhLR0L2taP/nJj4ryRNpRa0wfxEn6s8W8KbLFrBOVyo0OWkNTnUxBrsZxrp5D0r3Aj9QhqtzDNyqnEIcfg38jUtpsePfd73xfg9InHc4aFN77cp1deNEyy8tPUyNkmxwQBRso5OUV2Z5de9SIFkc5TY0tvlqa0MWkomKbIu+aFV5V1VN94dCsWbN9Z1nShq655jJbeu5CEUpqTHWCSQj5AJ0JatKuffuO2E9/+nN3GhmwDHV6SsU0qd15Nnf2XI9SL5D6rKqucpXG8pBwYpqYKuSzmsyU4hgXFOY6c+TkZAgI9Ar2JrqjyaRfvuwdE32kzFZUTLEzhdzOW3aBGOeDtmjhYg2g1NThfbZixRP2zDNPSRt0SK2nW0nxJPuofLcFi6b4ILNqAF8Mhz1d/k9uTpFsdroQW4sdPXZEai3OTcSZSxaK2GIOqWv6DGFikjPB5gANsUf81tXVLT28w6FzTm6uHT/a5tx9zjlnyXgmyUYMGju7s0ErxMGTz8wK2+133iJTOOzqBES1bct+cfcv5KQe8z0/2eHvnHPOdBiJDWF5BUszMjwAyDw/UhjkKCBZjtrUYHwSwiOsRI5KTJLCGT5dfMkll6u+syWZeY4okTbUcWdXu1Dhenvu6dest0tqT85svbj2sFTLvHnVGpwEqVVWXxM9IOU4xebOm2FlcirPX7ZM7oKQm5BjRkaWmIvdn8JSgw0CDBtt3YZX5RutlYQ1i+NZNRCyyy6/WOr4QmkNQWj1Izavg3mgL/n5qXb22WfZwf1NclR3WUZWyCcQd0k1VkyZ5AgZv5IRjZUJkuPE0djAuWxw8Nqrr9vmzVtdj+dk59sHPnCtzZxZ6Yl0cQkD6iBpRIQdMMJBAkVhYYkPaG3tEdUXsqH+ODt8rEYN2Ws1h/fbwUN7HL001LdINRwT53aLQLz8Z9TCyWS5QBhmHgWjxyQm8KXiZQOOSp2tkyT3OAGZjUQCWW1NPsDgwIAvJYQwHZ0ihNqwd/cR62wjLM0q6iQZ/wW+nBEiEjnHtgV2E50fdnRJdg+RAySffIJdu/ba+nWb7MUXV4ngb+hY625FWnqKGDXblpx5jt1114cFQjJFFNWTKBhtvGAC14DIhAZUfWIup7tryAO9SE13T4fN0Hhiw3E5grQsjcCYWpsgOTQY4lCAsnix2A72ma6unCvxy1IFgUNKEoYsh//teF4cCHUzMhLsoosusIS4JPvVL1fZ1k0HLUncRZb+BiBqpEv1xltyKE8N7fXVcZdfea5PQczNqlAVTPLxjAxxpZgA8ggtySRIulIdFba3dftOHc1NjUJWP7LHH8ux3Hy2byl0TmXOpbW12bNvUsJllqojLiHq+QSlpZO9j0PRIRlxNqrr14BgiCWdQludXYO2dfMee/jhx+3551/y9rApBVsus2KvRARgmhvYXTQp35aefZHdcP1tNn1GmUt3irQ9dhWmdanXKKEBTIwK02dKfbJ6u6n5iCR8wCMovjOKtAFo1X1MLlQ5Ba2pDjWcwWbjt+1bd9mzT6+2kpIpri/PWXquTZlS7hCU+4lx4TNgF7A5oLlwWJynhjOIhNgx/oNDbDPS7xAdAJDIThc6yA9oaq63jb48ol5SUGzTps6Uwyk7IYfM42miDcYZP4NcNcL9OLmNTXJcZRfxq0iY7+/rE5yulZ08Jqjdr7b06tmJlkziiQZq1uwyu+feW23ZBfNEkF5xKszFzrRRgYEgZ20kmmgvv7TGvvGNf7PXX3vDE9QZE0ADK+tSUuJ8aUteQabs20K77dab7Y477/C1qgCSlBRUMaEbkgSjGiNBZknjgO+lzcrvkNUfb7W31q3V38Es8NnnLLGlS892gqMncGfeFa0BAphk40L2ld66ebeg6nbdkiyDVmAL5i+Ubs5Sg4N5FNbqYMDwhtm2i79Z5caSD94UUlyaJwM53d8OUlFRrnqTHF0xyzkgY0+8jhAHwcZDB49IInqtvHSaqyokkq354bruri51NMEXYDHdDYgAcbXKmQOCY+jZTA7HOSUpTYY+TwZ/UO1OsOKSXAGORXbzbVfa+RctkvRLSkIET4ecS3EB4iTlXZ0DgsQH7OcPPubvKUhPy1IdfQ612Y0+OXXYKqtL7KqrL7bbb7/Zbrzxelt8xmIhMd5NB2NH1CdeFyD/Rm1nq+ZE1R34VEECf1dHv1yNGjHjetmv4+pjRPD8PI/CsIbJ05XHCEOZMBMaRHrFrSJGb/ewrXr+Vfvw3X9k1VNmaRC67LOf+4zdeuv16rCQgCQHWxHsy4lOD6qh6gFxsksIiXtyaoVarbtzUIipW/5Sl4dACMuwhcmqVavkyB1UZ/qtUGrijjtutQ996HapzVFXEaApBp0JPaQNTgaDNDV2yQYdt6amTk/8e/bpF/yTLRx5d88NN9zoK5lJPcIfKyuXFHi/UU/obhlYtRaFzEwoSZC/evRp+/Z//Eio8IDnupH6dP111wrdyRdJGfb3rmHfOGAGcggoPs2iI/Z3rCABMDK/URrru/WMZ+w73/mepcvG7Nqz3X70w+/bpZdd7BEKUHsAIvzyieEb0kgZVArcMmPmLKueWu1/47Ns3rzJJ54kKF7JyQfjcMnXkFEeQpylTgAHPuWqR6CKcnPTrbKyWChthp1z7gI786zZdq38mquuutwNK34CW7UQ9W0GnrqhHnWHjTC7J/9JJ8vGulOYlpFqCxfOsksvPUdA5Spx8QLr7uuQiuuVYS70SawFC2fazFmo13QHF/APflBgakO6lj3RiDyEpQbJsdvjyYqBTUn0l2XgNiw9d5EjVfbIYZ4HwsQGnoJt8WSPMSLFiMEn0WquJVNo79699sbatQ7rUdVTK6a6OxE4sBp/hv6k4EwkTkyEGABiV8TLLrvsMqG1HucW4mqrV6+WXm/0a3g4xgwICDIh4osNgiAMAPEw2kkfqJuHwx2oVyIDpaXpduVVl/nCVYKdhNdJ7HvrzXUyzuq0iAwg6O9jB5EeGWeS0IftuDz5Q4fIX+PVZGwxlixDy4ANi5AJGlgB3+R4dRpgY0JcHaq3WQPEwJGF2uM2gl0TeY0kjWPqfMP6jbpmSHUmCVIX+ztPU2Wb6A79i9kCBhybwsH3GEEY8BhzQzjCT3xyjo2dXnzxRaHN9Z7ajN28+OKLfYxlDXy8x249USb8CRCQavSiZ6qhg04UAqIYM3A9q4Obmxs1SEEDaCCD6sndqg4VBBRmcztPCnenKngwCBGJk0aTtEi6xC2lZbke+2LnJK5l84W1a98Wl7GcnnRZvOewO5xEKPbs2Wc/feCn9vm/+4J9+ctfstde2+QxMbaA8WnrBOaeZINSEgU2Ouyhhx63v/+HL9jXvvZVf00MNiAcEtVGE2Wf0kV4toLp0G/rjTc2ovvS09NkJxfarDnTBdc1cGonbY1JCGPBwd+MAbaTceBvCAgxYudjY8RUAdvDYCOTBDCwpdhGdqdnrClMmftirLFyCq3gjIDbeyTmLP3YunWrN4RMFAaQzUczMjOCK9UQICh/xKSOKuOkMrA1gVoLuI3fMfKk4RJzkjshFSiuU+OXLFnk+5jpqwZr0PbvO2gvrnpZTme76mcJSdjhuIZH/lGj77ezYeNGe+GFVfaTn/zYXn/9VTFMg+rC9mHsI7Zv/x5b8eQvbeVTK/zlShs2bHS/rbGhWcgzQYMQMEpfT1Tn37R9e8QMUnMYZRJLFp+5UHYgcJLZq4Ae0N+gz0z4BZNjsU+OmM2JXRcjEtKFKiyfXC61OMmdZMDR9u3brLamxmOB9J1rOWJlAlpjIKmUhqO6Xn7pVXviiZXqTIqOsJ13/jK7ZvmVNnt2taWkauDHRDGm4iRAaghizBxKIDF+qG7JpJhSzp4GL7ZnQez3rMwsEaLV9kul8V4aVEtra5OYIU8wvtQRHaCCgcN53SLHmB008D1YCUCYqUWE7Ozo9kEAPLD/29Zt20S0JnHpsNRehs2dN8fOWLxYqkzioIIqeXn1Os8NAEwwWUY0/JJLL7BLLlnmYRX2/XSQhAYY42XGKPYZI0LsHCU2wDHC8RsMjsT29Q7Z8WN1Osd0xHFjjwZyw4mOB6oTQvvtpxBn7AHA3YP7a+3JJ5+RGqsRR4R8c53rb7hOmPxMD7VI+vVwDbAq8tk73UubYm+kOrUEC4AJqHKIRHLUglVxQU5amqDr4ZojrraA2Ti/RCnweaYJlOAM0rwgRZfdZRt9p0Mm6VCFqD+cYw6cu9qaw9bR0anzAg9SU0vPOUfw9waBklIRS21Xu9evO2A//vFPBXS2y371iCn6ZWeW2Ic/dLNNrZTjyg4fIg7+lHd49CQRxhOD7zGuH/89RhwYF5CRnzdJ7UuzuuPMiDbaYGTAVejsOTMtLzdP16t+mP3diIPuYZxZ+7Jr515bsWKloy7OLV/+ASGji+QV8y4dLmXTBG4KpID9kzHgqCE64k0faz9S40kWkhiu99M0QPdh5wjNTBJcjUTixcE18jkkAZIW4npEf/PzS9zvYKVxZlaafKFKDUKiYHmnqgggO2t3cPogFmoCqE4ohl1+z5fE33rrLY7gUNkkpJAJ9K1v/pvvRoJEYDPLJ5faTR+8wa648lx3pNmihSMw7DT4pE0ZT5xYGf8bBIn9HUNs7J6VlpLrTAPyZcaUzNiFC+dLlRZpPEVM7hHzUiYQxwddB+9W5o0XK1c+ow6m+j5lt99+u82YVSEuR2J0sNbDs1oAAxCDCjnUOP7TV7jg5CcehSqHUPrEKXOvWZ4/khAVgKiYXOEqjrl2Vjmw8Ihkik2btjqT5OYU+oLhzKwkW7RonpzRc1xFkXfNAIfCycY70EjSKC9jf5oz7IMfvNFuu/0WIcLJ0gggvSZ79dVX7Mtf+oovJWGlAvqfeae7775L8P4DjgCjI0Nj8yxBlILElcCpPD1hYuf5RGpif5+UIKbIE93msOUZCLShvk72bZHNmD7d42toFaIv3DqBOB6kUwUEOoGVr78udCMOnTat0i6+5ELp/zyJpS6EiXQzqiookIOTYwc0oNA2b59OiDgnCxyVKOTSLVuW7N+75eTySai/sLDQ1VJN7RGbVlntNmXNmrUOv5l+GI4QXk8VOMkUmDjD5sw5w2bOnGOz5TOcccaZgv9X2PXX32jXaaAXn1mlQU62hoZ2N8CPPfao/ehHP7RGIU4ADnaG/dfuuPN2u+aaKy0vj7VD6oVQH5mrOK3Brup0XKP2XyhoFv/U2LJjFHYVt6ROhMH5PvPMM2zBgnnGDpAQ5V0lh3WNiD2IaeuWHbb2jbd1Q4Ywf7mdu2ypz3OQjwBlGWwMe4wCJ4kTVHyivIM4wfU4g2ERxlclx+5TJ5hp5d0HmVnZnjvAtAXwnCQMUmTffvttV3stra3W3MSLK9IsLydHxClWByt1VFllVZnxUqHubtlOGfotW7fYU08/aT/84fds7Ztr5FswBT4grj1uF154vi2/drlvd1JWDsQNmkJqE1MKZIny/IA4tPO3KzHCUILXrY0KuHQKQW70WVbawSaBEIcty1xixogzcX1OBEw+Yi3NXbI3z9g//X9fUscLff6cd08vXbpYYEA30Vb5FP5SCBeTGHGcaq4ag8KXsWOc5NBg0nbT09P9eVzvgdPe4IWnvihKRGuo67F//7dv2wMPPOC1FBQUinEGNGhDVpBfYFPkYRcVBRNkzDYGU7yBWmWJRmtbi9XW7rf9B3cL/TW4Y8r2lUwRo2puvOGD9kd/9Mee5JiWJmIEG6hLvWgshDoHBrssPSPk/gqGnODob1PGE4YCqOnpMjnZm+2LX/xnOaJN1tbRbF/4/N/a9Tcul21l7zipxLHHTIytSRCi8szZHeqVl9+wr37lX6xd33nGn/7Z5+yOO26xwklyZyGs50lDHArDAWE4IAXnY1Kl4saU77G/JTliUdAa+W1wi/sI+mQgmEL2d9fI0He0D8gPec1+/vNf2JYtWzWA7ObHbukko+BvsCdAyCE8HjqVoCrhdsJJBHKJSuCYdnU3e+4CcyiosWuvvU6cPGglxeXeFgooDge7f7BP0sPCLN5fx7wPE25B/36TckKVjSNQnMahqSFqjzz8qH3rX7+lfo94wPO//fVf+A6PZAL5MIwJ6DvQGgPFrB+Dxmv09+w74J1mIoiMliDcoEaeUGuU8WqNEjiDJwqVnlBdfNdftEDPA62RbIFjig0jA4WXI9EpJIkZS96Lxl6eZ8pZZfPXYA6JLFAhqQivcIzKTgSLojjYY4A8BiAwkfaQelxcWmgXXHCuffqzn7SP3HOHbBMIiVc6h9SfwNsH6DCUREmIWBMTxEdiLwUYwdv/a8p4Ypz6vbt72DZt3GG/euwx38yWfiw7/1y76MILfDcU1oX6+I8N4zvW59A6wglHD7f70sHvf//HPvSI2kfu/pDdfc9t8gFKdCcoJkYAroDzglrZzyUgEH/TKf3m2Zn6SuEZehZcGnEIrBOqi7A7REXPwyBSx3pGotQcyYDmYf3jdQ12pPaoz6JyNDURMxN87mO5PMFRkFWyOD1Ng8s+nvly8qboKNIAFMgelfoUMfaE3IFg0IkDJqjfwcQaI+TARwXUiB38Tcp7EYbC8v4HH3jM/vP+n6rfMNeQfeITH5MU32ZTphQzjE6YsUDDROIwaBCIo76u137wg/vsJz++3x0lXqB3/Q0fsD/980/K067Wnag1iAM3xYjDd3G99eszRhzOq6dkYlLGnkZ74RJUCBLoczfDLCtHJZJFY5aeytrRWGqwLtaB6h2QHwOi5EWq5DqQRQphsEf0jrUy7MqOQ8r6TXZyF0I3tlIAeLFZH/NO0Sjz/EyIJet7EBkhJojdCmJoaomag0Q5Jvg15d0IMv7czh019h//+mN7/PEVYppcnx3+6Ec/Yh/7+D1CwgVqF9MOevYYY7haO1lB4ImQtLd3d638nOdEpBZjj0r2wDz/wnME++ZJT2IcIQQtDg78mECVIX6x3yBI7Bqd43TsIxAyJxAnCAFRgNPE5BgsVjRwYdA+KU48aN2AJ800A7vr4ryVlZMpU2pTpk72DVKZmphckWclZdlSgyk+LyQ6+SBTeCYSE0QdpM7imZ4ASASB2yCMwvU8C2KOtfO3KDEfh8/Yd96iiw939MgRt630FZXLtAEpZMwowwRoFMzGxFdRqhlk9jOnsUFO6OaNu9Rg4lCJtuw86caLl3nqkgMBfx4tV03iaG4n4MhBJzHoqCYkyv/W9bHDBYrv+vTGaBAYpOCVLslqcJplpGfpkmBkggVF3Ch1J5XHoiTULAdcxiEMYKnpcU4I+YomgQtif/wO/EdiVAVyTbScfOpwKF1SA6OxaoFtW4LcAA5sH23kkPn5jUqMEO9GGD4LCvM0hueJyc+VCh32eCVv7N20cbu1CiGjsbg6oMSwD9OEQp50TW2thzVYd49uLCossuXLl9vs2czvQ6zg9ncvnB/r1Ynjtym/6X2xNvy2R6yMf86ve9b/msI80cyZM+yaq68WuCqVau5z1bx+3QarPXzY7SUMFyunEAfnkDTUI6LmJqmyTGNPgAuEJlimnpXFhkR0ZHwnY+X308H/20t6epItOWuJXXrpJSJOl/yuTFu3/m2BmyOyeTGAFZSJxNGYAx27ujrdA2fJN1B32bJlQiysnwyg6ju5MFZ+f1z4f2PBF2OKPzUlbOedd77GOmr5eXlCoeRVdLuqG18mEkfjyrINwuzkDre3tTnGJ5wCvOPVJB7wfE/CvE+g0xVScHl3EYiT+CFokkgGUxpEvgMn+mR5h81B75EQzjoddpdAjWVLgnSvKAsSixHmfcn5rxSEg1QytoNm4yVyMDhYvMV59zXHygTi4BmTpME8A/g/PS1d56K+9oV4FtTFqz2p1k4l0PvEea+CxEAcQlfBSmqkCTQrXCsNRZRi/IhOIA4/MLdRVMi6mgonEHnEK59aKcIgcsDQmPScQhz/GiPO+wQ6XcF14J06bNrEOCEtpSUlsj35FrxBP7iOMoE4/JCWlmHTKquMjVbZdZ0I8Ztr1/q7c4hZBXMN44gzng44Ev8LCRPzE/53H7+vwqPIe2DRFZsbsVKQIZxWVSknOnij1/jhm0AcbiZ8QLYja+v7BgaCfOamRnvp5ZesuYkMl3Fobdw0QFCoOXa8X04tqDQ22Xv5lZetrr7e56hwiufMnm1FxUVyvscuHCvvAAQgZUQN/ed5wslh38iaLbF6ertlsCDIeGAwvogoLj3vl3cruCGsKmgUgZiBpRCZYaEZYSNs0mkBAYWpggMHDti6des9YEiUgEVOeLYkGE5Ua6eW9wnz3iXONZHvCiIYzesoSergTSFsj8kGgM77Y2UccYL4WFNTi6198y2fDgYQkNfLDuwkPvD+sYmEeZ9Av00hyQP/5sorr7ILLrzQ+vp6HKW9pfFm13v2Gz0tICA8fqimxjau3+A+DQ5SUdEk+/SnP+VvNiQ/7b0jBBRqf59A715GnUAlJUX2sXvvtcqqKqmyYEd4tgZg2fxpJCfIja6tPWz7pdbYnJTQze2332Zz55Iqy+If8tJit7wLgU5Hr/eLFwgTHGZnn73APnjjjVJlQWouWwOQpUpaWqxMIA5z5bwYlewQ9ggg8/+GG2/Qd8L6wdb4qnrs6nFlAlHel5rTFeaGyIljzx1inJdeeqlDeSSHGVd2A2GL5lg5RXIG9GOPO0pET5kx5J1tLFEgLkQmJXv26zE6xklQjB7+OQ5u/P+qxDQJ/dfBLLEfMgOxz7GC6uJlG9hwVuhxH++3Y3rmBGsL9cZDORc1fQb76rOMgoSJThuMtFnfYLNPZAEW2JiHyTeBP88BGBzsV4WidHxEdQ3YwFCnGsH0NI3Uv7qGJQ1sBEQBKrKhg8/rqfAbf3OeQtSWv4Ot63W9+sRvHH7P2H0niv7m/Hsdv8k9J67h79jzYs8cO88hZTI2lR18ngwi463oBs86YsIR1UQGEa8R69MvvRoflqjoKt1DbgR7aHMfeQSsL4J4g4PBa5t1WmW8jtK1bC3PlvW+lCJ+UATqstrDe04MXvC29iRVHi9KB+m0iKqvpOa1jaME8NjglBwAFlax7jNYrOohOeqQWDp3MBA6WLHNen866teJrTjPNcyU4hh7N3SOdvh1aj+Ht4uOvMcBEwX5eHrG2D0n6h87vOic16/n0w4YJXZt7HeQ1EnCUF/AXMQcmUHWXRozwlzkg9M4lqOwlJNcazKYyLsIFo/hcO7bz0tu+8X8GhMRjpw63tMdFOaPx5VwKNkKC0qsqLDUO8SShTWvv2UdHT3Gew0Ir5FOyluXWBHGNO/oaJLUoZoQYT483eJGWaAKLIcapLQypawWkUqlpqIy9cUPn3LWb2TfkIMQS6jjvP9+6qHzvH2Wz+Ca4Lr3Oqg32JDo5H3UNf4axp/Dp811gHlok98z9hsj5Vm5JLcnsBg36AsS4wQc5X2hYsQIHURVpciO8Er+RBsdTtNQZIiYrPzTpbqelXsvrl7lthzilpSwgWCu2naSJCe/qTBQ5WVTbHr1bIkw+6Ml2/PPrbYN/s5oVQozSBeSO5wYH7YEXr3ixJC6G03xIySC+aIpMmrUTt/sAenS3+I1VYDEIWWkQAXXMCA+gD4g46/lUwf5cX6oVz7AZJsGB/W91+HXOEE4gjqC+04esXZhG4J2BG3iWn4jL4L31MVJm7B7eoKIE+wAHLQ3QGAkObI1JBu6YiJEyRGNi4gSb2k2Ek3xMYTY8vPleG62F55/zm0O/k5lZaVvMk5ed6y8I6lwOJpkrXKG9uzdK4lgx6N2qaZhT31lc+twiCUXY5c7S7EqYdQO7KsxXmVCCpMn6SEB+i22lpJuekRb35nxi224R/gCcUe9+WuGVdiUyLmbot/5D87wRBRdEyzU4loGOnbhuxfq5Xmx99R44VP3nbhTX5wJxur1pEXqH7seaWN7LogBkzgD6T/6o1tUSOWN2rGjDbZ390Fjr6DUlFxLDge2HB5AkaASe6WBeJnrgw/+zN94z/YAZBVdccXlng5QWEgCDQ89hTikjMUyYNjKhH2fmT5gqxSyL1F1LAsfGkqQzTFrbxuw48fbbfPG7fbII4/Ziy++6nlkpCrxEm8eykOcOHRER+AnwXFBmlPQwWDwuDbgQn05QRQGyL/pqz75e+y3GJjhvtMdbMMcMMXYOUrsk1r1Pfanv6hpjEA8g0Fil0ZUKdITL8J4S5BgFZqiFusZcVZ3vNF++egT9tyzq23vnhrVQ/IZL9UIW7dwUntrxI4eq7M3315jK1assDVrXreszAxfIMaLbm+66YP+diqyTAPNpudPSCpEutWu+oaoPfroo3bfT+7ziSFmRTHa5ZMrbCrZkxUVMl4ZTojGxkarq6uzXTt36UGdVlU92f7hH/9SXHCWsZUIhQGFe+k4QT76x/ocgqsnCq0YGyWuDxIJdcoJEEjfu5UT0nCa8l73xW51Ioyn0inFtz9mUwkRJap2kW/m21ZKYuL02dU1YG+sedv+8R+/aLWHjuh8SKZhls2ft8jKy6eon+xa1Wq1R/bK0dxh9Y11lpYqFyU5eNMI64JuvvlmKy7J8WEIyqnEgWF0UDTO9tTKZ+zzn/976cQ+Y2ESnWGH12BQ2Q8GBMKyjTRf9OQhn74Ou+22a+zuj95mM2fOEjGwoiKGCB+srwn+pi6YHoEJkBFSFeQrx36PjWtsECl8j/3N7+Pp+26F546/PvYZO2IlVi/tgXAQ1QEC1+nTs0NlPx2hOnHiJWFsMDHiC4x/+sDP7QEdbDCLy8G+oKykGJZUJYdTLCFEsn23KuzzhEhWUzO59vkv/J1vRJGVHazN8eKfpxDHoaY6w2+c5O/XX18n/fhz27plm2+nxWQcncAZTZHx4nt3d4+uJnkhWZwVsdS0ePvUpz9mV199jZWWFnsjeDCrlXn9IkQhYYSUWzrR2NQsY4nDm+ULmnjJA4NO3RSBGcHyqFRpvzMKkQwkL9icO9DR4weawr0c9fVt1ibPmwFlwwmm4HlxN8n4QFo6ymNoCzsdtra1q37W/ST6eiQQFF79wCCSHmSfMufF9b09fZ7sv2rVavvhD34sMMDOVeRdkMrL27Ok2kRA1CXfhyLd1tvf4jsyzp833z7+8Xv9jSPU6xOZ4gTytx3dqlUTbE6MKHAPiIXGT64o9b1m2GiINZMMLhNuJMiByVm6fcMN19nixYt8DzJeAsHD2AScrbfy8wp9sZIwgj+cujE7He1RX9r48wcftq9+5ev25Iqn1bGolZaUizjZzhiigbeJdgwIAcGh99//U/vaV7/hKJKByM4ulDRmiTGwhYGkQFh2NTyw/4g99tgK+/rXv2mPPvIr6+7qkw0ttjy1CT+D63rEV6zL4TmHa+vtZz97yOtfueIZMQJ7nOYLmaZZilQQi5/YMZH2i0ds5w7WzT6ttqzyRcMMHvbznnvuspmzpqv93TpFwvqgrz6fM3e6XXb5JXadJOXmW26y2XOm+4YWjDk3w2C4E25zVSaqNRXENio7A4dAfV58DZcQ1mGLLKYUyFJk+Xt6OoRI8A6Az7///R/YT2Sn2LIq2EA77K8uWbhwkVVXV1leQYEb/i7pzIOHDgmirxfwOOzSQMEesX3JInYcnD/f606XbSM6jk0jassmFbzQgWBhia4lc3LmjJm+ZTCb9lFI6Tpw4KAQ5x6r0T2sRKDk5eU6XGVHQ+wm4XoARWdnl7+dftu2bW4/yXrFRpKyNGvmTF1/hhVPKhUj5FpIXMaGSLt37/ZljLxTh9XbgAQm0D505x32J3/yOWNbSH4L1huxefmgb1eJZsjNyTY2bCVRHmZlEyNAC0xN6hmaxYk1kTigkQB6suYFtQBaQSVgBAEFvDwOcaZSfwOieI58K3INDtUcsh9870cS81espYkNHhIECrIcPHh2iTA4dbKPDQzAcwAbpAYBOdlvgNVuYUCDisNQHWyQDUcyQwshYaCwWD94BwCLfhMtOYWFuoGPwGD5G6T0DFYLcH+/nslLu5ndZYsWVmunpqWLEH2yo/gxMvn65AV6pCnBRDBL8EYrspGSnSGYeGQ/NWJhvCSDoCURFTYWuurqK+yuu+60ufNmaqxUH++b9lUToFP5h2J2dqkKBl+jrbFgZpkxR1a4hsnMQEWfQhxCDbImwXeNIg3G4Ou2gEByXkA1ZIVi3FnMS+eZavABEwFqhFZWPPGc0MsGTwqJvV8tABHYKiINAxrMVB9U0ArbQQIh2Sa/Q1JJ6zzW552K98GCqmzrlZ+bZ4VFhe6DNTbUO7dGmFYX4QNmkTocEAF90VPIs1bZ8Z3fmb/HPrLgipxv6mbZI29W7BWRuCdP0ldYVOR952V9vP0jMSRbKu0RbEDOziSjvof0sOxETm6mzZpV7RsX3XDjtb5FMuOIo8zCr+DFGCTfs3ohLH8HuwVh1B/1MSDE2HhLepxArtbeITmSFrxqfXMZEmFoJARBcoiLkdYThBggEl46vyW4+CKahICOHWm1zZt2uBfM9iHsotEuVRYVBydKllkmiPPFyml2r6iqrNLTRkXMfb7bO+nADCLz7UgRDUwXImRPgbnz5hmvBIMzd0jVoY7Y0Za90egghTZh+JlWnzF9hr+gj182bdrk9bN/GwyGj8E9pMTCZFm6nhXZbFLO9fv27nPVyLtIO+VYsskekY0UAYvMDLUnP1fqeppvojpn9iwRNV9MpjEiNimfyFdPeHQikApWXLDNP5XzXHe2vcH8wzmpI5UA/r+DODg6EEi018C7c6hfHVaOEYT7qBKCECREZbB1CJ1DvYVCKTYcYZvhQd8ZqbWt1Rrq631LfHYTJDKAFLFDO6/q5/2d7EyLRDXLNrCBD+9tw04gFag+VBDX8142XnFSWl4mruOV9o1y7I5J4lr8PuwiBdXIdDBrXsrLyvU931Unb5OiXmcWETTITx4xdoDHHrH4t6S0zJmA0q7219fXWUurbNj+GlfnDANvSpw0qdCPAtVdUJDjBGPhF6Gp1LQk/0S9suutO5aqj30ICMBq9Hwc/SQfjKn+QZJjDPYO4sAV7GnGD9gXv3C8N6yDgSWszZoZ4CYqhet83aQqZ1ESW2XhB+hnv69/YFjn0M0ESKPWJxhWVlqie4I6NW4uob44SqcgMruIqDp9j3jnWPHgNkiF0BBojroxqv1CbWwbGcs1dlshYw7CktnRwRLJsciDnkD7YRQ0A1XCXNjMJJCT6hQ/+LNpP7/39vJmYEAFUFeqLTks9Zak79i9oO1wPT4cjjmr6ugY9ojrqZ+OIe1IrI8TDzhR9NCxEhAp6OcE4iApcBLixuDTMJEpuFffuRFioMJ8WZ4e7HZJ9xDDwoagsoivoaODOsc2IFUFoDdMD/4OM62oNtQA60IxyhCb51I/z6Yurqcf/loyjRydpTnYh/Ed4ZNrKQxuYCsDx5c2YA+pEySWLieQn7kmJJ9CVTk8pgQrKdQXPSdRakm3up/EMkGMN4QNiBFc70yqm9EknANgMDYBEmTM9BydR2Px3VcABk329lPol4MwHY7YvDFm/xOWihSxh1O07gAAAABJRU5ErkJggg==;" vertex="1" parent="t7YmEEANc2R9Ah_3-m2z-111">
          <mxGeometry x="-214" y="-6.434540389972146" width="23.01753086419753" height="27.037037037037038" as="geometry" />
        </mxCell>
        <mxCell id="t7YmEEANc2R9Ah_3-m2z-200" value="" style="group" vertex="1" connectable="0" parent="t7YmEEANc2R9Ah_3-m2z-251">
          <mxGeometry x="74" y="2.1448467966573816" width="270" height="160.86350974930363" as="geometry" />
        </mxCell>
        <mxCell id="t7YmEEANc2R9Ah_3-m2z-221" style="edgeStyle=orthogonalEdgeStyle;rounded=0;orthogonalLoop=1;jettySize=auto;html=1;exitX=1;exitY=0.5;exitDx=0;exitDy=0;" edge="1" parent="t7YmEEANc2R9Ah_3-m2z-200" source="t7YmEEANc2R9Ah_3-m2z-113">
          <mxGeometry relative="1" as="geometry">
            <mxPoint x="332" y="174.80501392757662" as="targetPoint" />
            <Array as="points">
              <mxPoint x="332" y="99" />
            </Array>
          </mxGeometry>
        </mxCell>
        <mxCell id="t7YmEEANc2R9Ah_3-m2z-113" value="&lt;div&gt;&lt;span style=&quot;background-color: initial; color: rgb(0, 0, 255);&quot;&gt;Feature Engineering Pipeline&lt;/span&gt;&lt;br&gt;&lt;/div&gt;" style="rounded=1;whiteSpace=wrap;html=1;verticalAlign=top;" vertex="1" parent="t7YmEEANc2R9Ah_3-m2z-200">
          <mxGeometry x="9" y="17.07242339832869" width="270" height="160.86350974930363" as="geometry" />
        </mxCell>
        <mxCell id="t7YmEEANc2R9Ah_3-m2z-107" value="" style="group" vertex="1" connectable="0" parent="t7YmEEANc2R9Ah_3-m2z-200">
          <mxGeometry x="20" y="64.34540389972146" width="45.85" height="48.055292479108644" as="geometry" />
        </mxCell>
        <mxCell id="t7YmEEANc2R9Ah_3-m2z-99" value="" style="shape=card;whiteSpace=wrap;html=1;size=10;" vertex="1" parent="t7YmEEANc2R9Ah_3-m2z-107">
          <mxGeometry y="2.8267819105358023" width="22.925" height="45.22851056857284" as="geometry" />
        </mxCell>
        <mxCell id="t7YmEEANc2R9Ah_3-m2z-101" value="" style="shape=card;whiteSpace=wrap;html=1;size=10;" vertex="1" parent="t7YmEEANc2R9Ah_3-m2z-107">
          <mxGeometry x="7.6416666666666675" y="2.8267819105358023" width="22.925" height="45.22851056857284" as="geometry" />
        </mxCell>
        <mxCell id="t7YmEEANc2R9Ah_3-m2z-102" value="&lt;font style=&quot;font-size: 8px;&quot;&gt;&lt;b&gt;PDF/&lt;/b&gt;&lt;/font&gt;&lt;div style=&quot;font-size: 8px;&quot;&gt;&lt;font style=&quot;font-size: 8px;&quot;&gt;&lt;b&gt;Word/&lt;/b&gt;&lt;/font&gt;&lt;/div&gt;&lt;div style=&quot;font-size: 8px;&quot;&gt;&lt;font style=&quot;font-size: 8px;&quot;&gt;&lt;b&gt;Txt&lt;/b&gt;&lt;/font&gt;&lt;div style=&quot;font-size: 8px;&quot;&gt;&lt;font style=&quot;font-size: 8px;&quot;&gt;&lt;b&gt;Files&lt;/b&gt;&lt;/font&gt;&lt;/div&gt;&lt;/div&gt;" style="shape=card;whiteSpace=wrap;html=1;size=10;verticalAlign=middle;spacing=0;fontSize=8;" vertex="1" parent="t7YmEEANc2R9Ah_3-m2z-107">
          <mxGeometry x="15.283333333333335" width="30.56666666666667" height="48.055292479108644" as="geometry" />
        </mxCell>
        <mxCell id="t7YmEEANc2R9Ah_3-m2z-143" value="" style="group" vertex="1" connectable="0" parent="t7YmEEANc2R9Ah_3-m2z-200">
          <mxGeometry x="65.85365853658537" y="46.449338440111426" width="90.54878048780488" height="91.49112116991647" as="geometry" />
        </mxCell>
        <mxCell id="t7YmEEANc2R9Ah_3-m2z-116" value="&lt;font style=&quot;font-size: 9px;&quot;&gt;Chunks&lt;/font&gt;" style="rounded=0;whiteSpace=wrap;html=1;" vertex="1" parent="t7YmEEANc2R9Ah_3-m2z-143">
          <mxGeometry x="41.158536585365844" width="49.39024390243901" height="17.091747910863514" as="geometry" />
        </mxCell>
        <mxCell id="t7YmEEANc2R9Ah_3-m2z-120" value="&lt;font style=&quot;font-size: 9px;&quot;&gt;Chunks&lt;/font&gt;" style="rounded=0;whiteSpace=wrap;html=1;" vertex="1" parent="t7YmEEANc2R9Ah_3-m2z-143">
          <mxGeometry x="41.158536585365844" y="26.140320334261848" width="49.39024390243901" height="17.091747910863514" as="geometry" />
        </mxCell>
        <mxCell id="t7YmEEANc2R9Ah_3-m2z-121" value="&lt;font style=&quot;font-size: 9px;&quot;&gt;Chunks&lt;/font&gt;" style="rounded=0;whiteSpace=wrap;html=1;" vertex="1" parent="t7YmEEANc2R9Ah_3-m2z-143">
          <mxGeometry x="41.158536585365844" y="50.26984679665739" width="49.39024390243901" height="17.091747910863514" as="geometry" />
        </mxCell>
        <mxCell id="t7YmEEANc2R9Ah_3-m2z-122" value="&lt;font style=&quot;font-size: 9px;&quot;&gt;Chunks&lt;/font&gt;" style="rounded=0;whiteSpace=wrap;html=1;" vertex="1" parent="t7YmEEANc2R9Ah_3-m2z-143">
          <mxGeometry x="41.158536585365844" y="74.39937325905295" width="49.39024390243901" height="17.091747910863514" as="geometry" />
        </mxCell>
        <mxCell id="t7YmEEANc2R9Ah_3-m2z-131" value="" style="endArrow=none;html=1;rounded=0;" edge="1" parent="t7YmEEANc2R9Ah_3-m2z-143">
          <mxGeometry width="50" height="50" relative="1" as="geometry">
            <mxPoint y="47.05257660167132" as="sourcePoint" />
            <mxPoint x="16.463414634146336" y="47.05257660167132" as="targetPoint" />
          </mxGeometry>
        </mxCell>
        <mxCell id="t7YmEEANc2R9Ah_3-m2z-132" value="" style="endArrow=none;html=1;rounded=0;" edge="1" parent="t7YmEEANc2R9Ah_3-m2z-143">
          <mxGeometry width="50" height="50" relative="1" as="geometry">
            <mxPoint x="16.463414634146336" y="81.6382311977716" as="sourcePoint" />
            <mxPoint x="16.463414634146336" y="10.053969359331479" as="targetPoint" />
            <Array as="points" />
          </mxGeometry>
        </mxCell>
        <mxCell id="t7YmEEANc2R9Ah_3-m2z-133" value="" style="endArrow=classic;html=1;rounded=0;" edge="1" parent="t7YmEEANc2R9Ah_3-m2z-143">
          <mxGeometry width="50" height="50" relative="1" as="geometry">
            <mxPoint x="16.463414634146336" y="10.053969359331479" as="sourcePoint" />
            <mxPoint x="41.158536585365844" y="10.053969359331479" as="targetPoint" />
          </mxGeometry>
        </mxCell>
        <mxCell id="t7YmEEANc2R9Ah_3-m2z-138" value="" style="endArrow=classic;html=1;rounded=0;" edge="1" parent="t7YmEEANc2R9Ah_3-m2z-143">
          <mxGeometry width="50" height="50" relative="1" as="geometry">
            <mxPoint x="16.463414634146336" y="34.18349582172703" as="sourcePoint" />
            <mxPoint x="41.158536585365844" y="34.18349582172703" as="targetPoint" />
          </mxGeometry>
        </mxCell>
        <mxCell id="t7YmEEANc2R9Ah_3-m2z-139" value="" style="endArrow=classic;html=1;rounded=0;" edge="1" parent="t7YmEEANc2R9Ah_3-m2z-143">
          <mxGeometry width="50" height="50" relative="1" as="geometry">
            <mxPoint x="16.463414634146336" y="59.1173398328691" as="sourcePoint" />
            <mxPoint x="41.158536585365844" y="59.1173398328691" as="targetPoint" />
          </mxGeometry>
        </mxCell>
        <mxCell id="t7YmEEANc2R9Ah_3-m2z-140" value="" style="endArrow=classic;html=1;rounded=0;" edge="1" parent="t7YmEEANc2R9Ah_3-m2z-143">
          <mxGeometry width="50" height="50" relative="1" as="geometry">
            <mxPoint x="16.463414634146336" y="81.6382311977716" as="sourcePoint" />
            <mxPoint x="41.158536585365844" y="81.6382311977716" as="targetPoint" />
          </mxGeometry>
        </mxCell>
        <mxCell id="t7YmEEANc2R9Ah_3-m2z-147" value="&lt;div style=&quot;font-size: 8px;&quot;&gt;&lt;font style=&quot;font-size: 8px;&quot;&gt;Embeddings&lt;/font&gt;&lt;/div&gt;&lt;div style=&quot;font-size: 8px;&quot;&gt;&lt;font style=&quot;font-size: 8px;&quot;&gt;(&lt;/font&gt;&lt;span style=&quot;background-color: initial;&quot;&gt;110010....)&lt;/span&gt;&lt;/div&gt;" style="text;html=1;align=center;verticalAlign=middle;whiteSpace=wrap;rounded=0;" vertex="1" parent="t7YmEEANc2R9Ah_3-m2z-200">
          <mxGeometry x="181.09756097560975" y="46.449338440111426" width="49.390243902439025" height="17.292827298050142" as="geometry" />
        </mxCell>
        <mxCell id="t7YmEEANc2R9Ah_3-m2z-148" value="&lt;font style=&quot;font-size: 8px;&quot;&gt;Embeddings&lt;/font&gt;&lt;div style=&quot;font-size: 8px;&quot;&gt;&lt;font style=&quot;font-size: 8px;&quot;&gt;(001101.....)&lt;/font&gt;&lt;/div&gt;" style="text;html=1;align=center;verticalAlign=middle;whiteSpace=wrap;rounded=0;" vertex="1" parent="t7YmEEANc2R9Ah_3-m2z-200">
          <mxGeometry x="180.27439024390245" y="71.78534122562674" width="49.390243902439025" height="17.292827298050142" as="geometry" />
        </mxCell>
        <mxCell id="t7YmEEANc2R9Ah_3-m2z-149" value="&lt;font style=&quot;font-size: 8px;&quot;&gt;Embeddings&lt;/font&gt;&lt;div style=&quot;font-size: 8px;&quot;&gt;&lt;font style=&quot;font-size: 8px;&quot;&gt;(111000.....)&lt;/font&gt;&lt;/div&gt;" style="text;html=1;align=center;verticalAlign=middle;whiteSpace=wrap;rounded=0;" vertex="1" parent="t7YmEEANc2R9Ah_3-m2z-200">
          <mxGeometry x="181.9207317073171" y="120.64763231197773" width="49.390243902439025" height="17.292827298050142" as="geometry" />
        </mxCell>
        <mxCell id="t7YmEEANc2R9Ah_3-m2z-150" value="&lt;font style=&quot;font-size: 8px;&quot;&gt;Embeddings&lt;/font&gt;&lt;div style=&quot;font-size: 8px;&quot;&gt;&lt;font style=&quot;font-size: 8px;&quot;&gt;(010101....)&lt;/font&gt;&lt;/div&gt;" style="text;html=1;align=center;verticalAlign=middle;whiteSpace=wrap;rounded=0;" vertex="1" parent="t7YmEEANc2R9Ah_3-m2z-200">
          <mxGeometry x="180.27439024390245" y="95.11055013927577" width="49.390243902439025" height="17.292827298050142" as="geometry" />
        </mxCell>
        <mxCell id="t7YmEEANc2R9Ah_3-m2z-153" value="" style="endArrow=classic;html=1;rounded=0;" edge="1" parent="t7YmEEANc2R9Ah_3-m2z-200">
          <mxGeometry width="50" height="50" relative="1" as="geometry">
            <mxPoint x="156.40243902439028" y="54.89467270194986" as="sourcePoint" />
            <mxPoint x="181.09756097560975" y="54.89467270194986" as="targetPoint" />
          </mxGeometry>
        </mxCell>
        <mxCell id="t7YmEEANc2R9Ah_3-m2z-154" value="" style="endArrow=classic;html=1;rounded=0;" edge="1" parent="t7YmEEANc2R9Ah_3-m2z-200">
          <mxGeometry width="50" height="50" relative="1" as="geometry">
            <mxPoint x="156.40243902439028" y="80.63283426183845" as="sourcePoint" />
            <mxPoint x="181.09756097560975" y="80.63283426183845" as="targetPoint" />
          </mxGeometry>
        </mxCell>
        <mxCell id="t7YmEEANc2R9Ah_3-m2z-155" value="" style="endArrow=classic;html=1;rounded=0;" edge="1" parent="t7YmEEANc2R9Ah_3-m2z-200">
          <mxGeometry width="50" height="50" relative="1" as="geometry">
            <mxPoint x="156.40243902439028" y="105.56667827298052" as="sourcePoint" />
            <mxPoint x="181.09756097560975" y="105.56667827298052" as="targetPoint" />
          </mxGeometry>
        </mxCell>
        <mxCell id="t7YmEEANc2R9Ah_3-m2z-156" value="" style="endArrow=classic;html=1;rounded=0;" edge="1" parent="t7YmEEANc2R9Ah_3-m2z-200">
          <mxGeometry width="50" height="50" relative="1" as="geometry">
            <mxPoint x="156.40243902439028" y="128.89188718662956" as="sourcePoint" />
            <mxPoint x="181.09756097560975" y="128.89188718662956" as="targetPoint" />
          </mxGeometry>
        </mxCell>
        <mxCell id="t7YmEEANc2R9Ah_3-m2z-170" value="" style="group" vertex="1" connectable="0" parent="t7YmEEANc2R9Ah_3-m2z-200">
          <mxGeometry x="181.26219512195118" y="120.77954038997214" width="50.55914634146343" height="20.22416260445687" as="geometry" />
        </mxCell>
        <mxCell id="t7YmEEANc2R9Ah_3-m2z-166" value="" style="endArrow=none;dashed=1;html=1;rounded=0;exitX=-0.011;exitY=1.163;exitDx=0;exitDy=0;exitPerimeter=0;entryX=1.056;entryY=1.119;entryDx=0;entryDy=0;entryPerimeter=0;startSize=2;jumpSize=4;strokeWidth=0.5;" edge="1" parent="t7YmEEANc2R9Ah_3-m2z-170">
          <mxGeometry width="50" height="50" relative="1" as="geometry">
            <mxPoint x="0.11524390243905996" y="20.18072945682453" as="sourcePoint" />
            <mxPoint x="50.34512195121954" y="20.22416260445687" as="targetPoint" />
          </mxGeometry>
        </mxCell>
        <mxCell id="t7YmEEANc2R9Ah_3-m2z-167" value="" style="endArrow=none;html=1;rounded=0;exitX=1.027;exitY=1.15;exitDx=0;exitDy=0;exitPerimeter=0;entryX=1.02;entryY=-0.004;entryDx=0;entryDy=0;entryPerimeter=0;strokeWidth=0.5;dashed=1;" edge="1" parent="t7YmEEANc2R9Ah_3-m2z-170">
          <mxGeometry width="50" height="50" relative="1" as="geometry">
            <mxPoint x="50.55914634146343" y="19.95592270194985" as="sourcePoint" />
            <mxPoint x="50.213414634146346" as="targetPoint" />
          </mxGeometry>
        </mxCell>
        <mxCell id="t7YmEEANc2R9Ah_3-m2z-168" value="" style="endArrow=none;dashed=1;html=1;rounded=0;exitX=-0.011;exitY=1.163;exitDx=0;exitDy=0;exitPerimeter=0;entryX=1.056;entryY=1.119;entryDx=0;entryDy=0;entryPerimeter=0;startSize=2;jumpSize=4;strokeWidth=0.5;" edge="1" parent="t7YmEEANc2R9Ah_3-m2z-170">
          <mxGeometry width="50" height="50" relative="1" as="geometry">
            <mxPoint x="0.11524390243905996" y="0.072790738161576" as="sourcePoint" />
            <mxPoint x="50.34512195121954" y="0.11622388579391248" as="targetPoint" />
          </mxGeometry>
        </mxCell>
        <mxCell id="t7YmEEANc2R9Ah_3-m2z-169" value="" style="endArrow=none;html=1;rounded=0;exitX=1.027;exitY=1.15;exitDx=0;exitDy=0;exitPerimeter=0;entryX=1.02;entryY=-0.004;entryDx=0;entryDy=0;entryPerimeter=0;strokeWidth=0.5;dashed=1;" edge="1" parent="t7YmEEANc2R9Ah_3-m2z-170">
          <mxGeometry width="50" height="50" relative="1" as="geometry">
            <mxPoint x="0.34573170731708636" y="19.95592270194985" as="sourcePoint" />
            <mxPoint as="targetPoint" />
          </mxGeometry>
        </mxCell>
        <mxCell id="t7YmEEANc2R9Ah_3-m2z-171" value="" style="group" vertex="1" connectable="0" parent="t7YmEEANc2R9Ah_3-m2z-200">
          <mxGeometry x="181.26219512195118" y="70.91185236768803" width="50.55914634146343" height="20.22416260445687" as="geometry" />
        </mxCell>
        <mxCell id="t7YmEEANc2R9Ah_3-m2z-172" value="" style="endArrow=none;dashed=1;html=1;rounded=0;exitX=-0.011;exitY=1.163;exitDx=0;exitDy=0;exitPerimeter=0;entryX=1.056;entryY=1.119;entryDx=0;entryDy=0;entryPerimeter=0;startSize=2;jumpSize=4;strokeWidth=0.5;" edge="1" parent="t7YmEEANc2R9Ah_3-m2z-171">
          <mxGeometry width="50" height="50" relative="1" as="geometry">
            <mxPoint x="0.11524390243905996" y="20.18072945682453" as="sourcePoint" />
            <mxPoint x="50.34512195121954" y="20.22416260445687" as="targetPoint" />
          </mxGeometry>
        </mxCell>
        <mxCell id="t7YmEEANc2R9Ah_3-m2z-173" value="" style="endArrow=none;html=1;rounded=0;exitX=1.027;exitY=1.15;exitDx=0;exitDy=0;exitPerimeter=0;entryX=1.02;entryY=-0.004;entryDx=0;entryDy=0;entryPerimeter=0;strokeWidth=0.5;dashed=1;" edge="1" parent="t7YmEEANc2R9Ah_3-m2z-171">
          <mxGeometry width="50" height="50" relative="1" as="geometry">
            <mxPoint x="50.55914634146343" y="19.95592270194985" as="sourcePoint" />
            <mxPoint x="50.213414634146346" as="targetPoint" />
          </mxGeometry>
        </mxCell>
        <mxCell id="t7YmEEANc2R9Ah_3-m2z-174" value="" style="endArrow=none;dashed=1;html=1;rounded=0;exitX=-0.011;exitY=1.163;exitDx=0;exitDy=0;exitPerimeter=0;entryX=1.056;entryY=1.119;entryDx=0;entryDy=0;entryPerimeter=0;startSize=2;jumpSize=4;strokeWidth=0.5;" edge="1" parent="t7YmEEANc2R9Ah_3-m2z-171">
          <mxGeometry width="50" height="50" relative="1" as="geometry">
            <mxPoint x="0.11524390243905996" y="0.072790738161576" as="sourcePoint" />
            <mxPoint x="50.34512195121954" y="0.11622388579391248" as="targetPoint" />
          </mxGeometry>
        </mxCell>
        <mxCell id="t7YmEEANc2R9Ah_3-m2z-175" value="" style="endArrow=none;html=1;rounded=0;exitX=1.027;exitY=1.15;exitDx=0;exitDy=0;exitPerimeter=0;entryX=1.02;entryY=-0.004;entryDx=0;entryDy=0;entryPerimeter=0;strokeWidth=0.5;dashed=1;" edge="1" parent="t7YmEEANc2R9Ah_3-m2z-171">
          <mxGeometry width="50" height="50" relative="1" as="geometry">
            <mxPoint x="0.34573170731708636" y="19.95592270194985" as="sourcePoint" />
            <mxPoint as="targetPoint" />
          </mxGeometry>
        </mxCell>
        <mxCell id="t7YmEEANc2R9Ah_3-m2z-176" value="" style="group" vertex="1" connectable="0" parent="t7YmEEANc2R9Ah_3-m2z-200">
          <mxGeometry x="181.26219512195118" y="45.978008356545956" width="50.55914634146343" height="20.22416260445687" as="geometry" />
        </mxCell>
        <mxCell id="t7YmEEANc2R9Ah_3-m2z-177" value="" style="endArrow=none;dashed=1;html=1;rounded=0;exitX=-0.011;exitY=1.163;exitDx=0;exitDy=0;exitPerimeter=0;entryX=1.056;entryY=1.119;entryDx=0;entryDy=0;entryPerimeter=0;startSize=2;jumpSize=4;strokeWidth=0.5;" edge="1" parent="t7YmEEANc2R9Ah_3-m2z-176">
          <mxGeometry width="50" height="50" relative="1" as="geometry">
            <mxPoint x="0.11524390243905996" y="20.18072945682453" as="sourcePoint" />
            <mxPoint x="50.34512195121954" y="20.22416260445687" as="targetPoint" />
          </mxGeometry>
        </mxCell>
        <mxCell id="t7YmEEANc2R9Ah_3-m2z-178" value="" style="endArrow=none;html=1;rounded=0;exitX=1.027;exitY=1.15;exitDx=0;exitDy=0;exitPerimeter=0;entryX=1.02;entryY=-0.004;entryDx=0;entryDy=0;entryPerimeter=0;strokeWidth=0.5;dashed=1;" edge="1" parent="t7YmEEANc2R9Ah_3-m2z-176">
          <mxGeometry width="50" height="50" relative="1" as="geometry">
            <mxPoint x="50.55914634146343" y="19.95592270194985" as="sourcePoint" />
            <mxPoint x="50.213414634146346" as="targetPoint" />
          </mxGeometry>
        </mxCell>
        <mxCell id="t7YmEEANc2R9Ah_3-m2z-179" value="" style="endArrow=none;dashed=1;html=1;rounded=0;exitX=-0.011;exitY=1.163;exitDx=0;exitDy=0;exitPerimeter=0;entryX=1.056;entryY=1.119;entryDx=0;entryDy=0;entryPerimeter=0;startSize=2;jumpSize=4;strokeWidth=0.5;" edge="1" parent="t7YmEEANc2R9Ah_3-m2z-176">
          <mxGeometry width="50" height="50" relative="1" as="geometry">
            <mxPoint x="0.11524390243905996" y="0.072790738161576" as="sourcePoint" />
            <mxPoint x="50.34512195121954" y="0.11622388579391248" as="targetPoint" />
          </mxGeometry>
        </mxCell>
        <mxCell id="t7YmEEANc2R9Ah_3-m2z-180" value="" style="endArrow=none;html=1;rounded=0;exitX=1.027;exitY=1.15;exitDx=0;exitDy=0;exitPerimeter=0;entryX=1.02;entryY=-0.004;entryDx=0;entryDy=0;entryPerimeter=0;strokeWidth=0.5;dashed=1;" edge="1" parent="t7YmEEANc2R9Ah_3-m2z-176">
          <mxGeometry width="50" height="50" relative="1" as="geometry">
            <mxPoint x="0.34573170731708636" y="19.95592270194985" as="sourcePoint" />
            <mxPoint as="targetPoint" />
          </mxGeometry>
        </mxCell>
        <mxCell id="t7YmEEANc2R9Ah_3-m2z-188" value="" style="endArrow=none;html=1;rounded=0;exitX=0.713;exitY=0.4;exitDx=0;exitDy=0;exitPerimeter=0;" edge="1" parent="t7YmEEANc2R9Ah_3-m2z-200">
          <mxGeometry width="50" height="50" relative="1" as="geometry">
            <mxPoint x="231.33896341463415" y="55.69899025069638" as="sourcePoint" />
            <mxPoint x="247.77439024390245" y="55.69899025069638" as="targetPoint" />
          </mxGeometry>
        </mxCell>
        <mxCell id="t7YmEEANc2R9Ah_3-m2z-189" value="" style="endArrow=none;html=1;rounded=0;exitX=0.713;exitY=0.4;exitDx=0;exitDy=0;exitPerimeter=0;" edge="1" parent="t7YmEEANc2R9Ah_3-m2z-200">
          <mxGeometry width="50" height="50" relative="1" as="geometry">
            <mxPoint x="231.33896341463415" y="80.63283426183845" as="sourcePoint" />
            <mxPoint x="247.77439024390245" y="80.63283426183845" as="targetPoint" />
          </mxGeometry>
        </mxCell>
        <mxCell id="t7YmEEANc2R9Ah_3-m2z-190" value="" style="endArrow=none;html=1;rounded=0;exitX=0.713;exitY=0.4;exitDx=0;exitDy=0;exitPerimeter=0;" edge="1" parent="t7YmEEANc2R9Ah_3-m2z-200">
          <mxGeometry width="50" height="50" relative="1" as="geometry">
            <mxPoint x="232.16213414634146" y="104.76236072423399" as="sourcePoint" />
            <mxPoint x="248.59756097560978" y="104.76236072423399" as="targetPoint" />
          </mxGeometry>
        </mxCell>
        <mxCell id="t7YmEEANc2R9Ah_3-m2z-191" value="" style="endArrow=none;html=1;rounded=0;exitX=0.713;exitY=0.4;exitDx=0;exitDy=0;exitPerimeter=0;" edge="1" parent="t7YmEEANc2R9Ah_3-m2z-200">
          <mxGeometry width="50" height="50" relative="1" as="geometry">
            <mxPoint x="231.33896341463415" y="130.50052228412258" as="sourcePoint" />
            <mxPoint x="247.77439024390245" y="130.50052228412258" as="targetPoint" />
          </mxGeometry>
        </mxCell>
        <mxCell id="t7YmEEANc2R9Ah_3-m2z-192" value="" style="endArrow=none;html=1;rounded=0;" edge="1" parent="t7YmEEANc2R9Ah_3-m2z-200">
          <mxGeometry width="50" height="50" relative="1" as="geometry">
            <mxPoint x="247.77439024390245" y="130.50052228412258" as="sourcePoint" />
            <mxPoint x="247.77439024390245" y="55.69899025069638" as="targetPoint" />
          </mxGeometry>
        </mxCell>
        <mxCell id="t7YmEEANc2R9Ah_3-m2z-195" value="" style="group" vertex="1" connectable="0" parent="t7YmEEANc2R9Ah_3-m2z-200">
          <mxGeometry x="181.26219512195118" y="95.84569637883008" width="50.55914634146343" height="20.22416260445687" as="geometry" />
        </mxCell>
        <mxCell id="t7YmEEANc2R9Ah_3-m2z-196" value="" style="endArrow=none;dashed=1;html=1;rounded=0;exitX=-0.011;exitY=1.163;exitDx=0;exitDy=0;exitPerimeter=0;entryX=1.056;entryY=1.119;entryDx=0;entryDy=0;entryPerimeter=0;startSize=2;jumpSize=4;strokeWidth=0.5;" edge="1" parent="t7YmEEANc2R9Ah_3-m2z-195">
          <mxGeometry width="50" height="50" relative="1" as="geometry">
            <mxPoint x="0.11524390243905996" y="20.18072945682453" as="sourcePoint" />
            <mxPoint x="50.34512195121954" y="20.22416260445687" as="targetPoint" />
          </mxGeometry>
        </mxCell>
        <mxCell id="t7YmEEANc2R9Ah_3-m2z-197" value="" style="endArrow=none;html=1;rounded=0;exitX=1.027;exitY=1.15;exitDx=0;exitDy=0;exitPerimeter=0;entryX=1.02;entryY=-0.004;entryDx=0;entryDy=0;entryPerimeter=0;strokeWidth=0.5;dashed=1;" edge="1" parent="t7YmEEANc2R9Ah_3-m2z-195">
          <mxGeometry width="50" height="50" relative="1" as="geometry">
            <mxPoint x="50.55914634146343" y="19.95592270194985" as="sourcePoint" />
            <mxPoint x="50.213414634146346" as="targetPoint" />
          </mxGeometry>
        </mxCell>
        <mxCell id="t7YmEEANc2R9Ah_3-m2z-198" value="" style="endArrow=none;dashed=1;html=1;rounded=0;exitX=-0.011;exitY=1.163;exitDx=0;exitDy=0;exitPerimeter=0;entryX=1.056;entryY=1.119;entryDx=0;entryDy=0;entryPerimeter=0;startSize=2;jumpSize=4;strokeWidth=0.5;" edge="1" parent="t7YmEEANc2R9Ah_3-m2z-195">
          <mxGeometry width="50" height="50" relative="1" as="geometry">
            <mxPoint x="0.11524390243905996" y="0.072790738161576" as="sourcePoint" />
            <mxPoint x="50.34512195121954" y="0.11622388579391248" as="targetPoint" />
          </mxGeometry>
        </mxCell>
        <mxCell id="t7YmEEANc2R9Ah_3-m2z-199" value="" style="endArrow=none;html=1;rounded=0;exitX=1.027;exitY=1.15;exitDx=0;exitDy=0;exitPerimeter=0;entryX=1.02;entryY=-0.004;entryDx=0;entryDy=0;entryPerimeter=0;strokeWidth=0.5;dashed=1;" edge="1" parent="t7YmEEANc2R9Ah_3-m2z-195">
          <mxGeometry width="50" height="50" relative="1" as="geometry">
            <mxPoint x="0.34573170731708636" y="19.95592270194985" as="sourcePoint" />
            <mxPoint as="targetPoint" />
          </mxGeometry>
        </mxCell>
        <mxCell id="t7YmEEANc2R9Ah_3-m2z-209" value="" style="group" vertex="1" connectable="0" parent="t7YmEEANc2R9Ah_3-m2z-251">
          <mxGeometry x="230.58" y="262.74373259052925" width="74.42" height="53.621169916434546" as="geometry" />
        </mxCell>
        <mxCell id="t7YmEEANc2R9Ah_3-m2z-210" value="" style="endArrow=none;dashed=1;html=1;rounded=0;exitX=-0.011;exitY=1.163;exitDx=0;exitDy=0;exitPerimeter=0;entryX=1.056;entryY=1.119;entryDx=0;entryDy=0;entryPerimeter=0;startSize=2;jumpSize=4;strokeWidth=0.5;" edge="1" parent="t7YmEEANc2R9Ah_3-m2z-209">
          <mxGeometry width="50" height="50" relative="1" as="geometry">
            <mxPoint x="0.16963204168028673" y="53.50601379181528" as="sourcePoint" />
            <mxPoint x="74.104969065451" y="53.621169916434546" as="targetPoint" />
          </mxGeometry>
        </mxCell>
        <mxCell id="t7YmEEANc2R9Ah_3-m2z-211" value="" style="endArrow=none;html=1;rounded=0;exitX=1.027;exitY=1.15;exitDx=0;exitDy=0;exitPerimeter=0;entryX=1.02;entryY=-0.004;entryDx=0;entryDy=0;entryPerimeter=0;strokeWidth=0.5;dashed=1;" edge="1" parent="t7YmEEANc2R9Ah_3-m2z-209">
          <mxGeometry width="50" height="50" relative="1" as="geometry">
            <mxPoint x="74.42" y="52.909974220869515" as="sourcePoint" />
            <mxPoint x="73.91110387495927" as="targetPoint" />
          </mxGeometry>
        </mxCell>
        <mxCell id="t7YmEEANc2R9Ah_3-m2z-212" value="" style="endArrow=none;dashed=1;html=1;rounded=0;exitX=-0.011;exitY=1.163;exitDx=0;exitDy=0;exitPerimeter=0;entryX=1.056;entryY=1.119;entryDx=0;entryDy=0;entryPerimeter=0;startSize=2;jumpSize=4;strokeWidth=0.5;" edge="1" parent="t7YmEEANc2R9Ah_3-m2z-209">
          <mxGeometry width="50" height="50" relative="1" as="geometry">
            <mxPoint x="0.16963204168028673" y="0.19299313477851576" as="sourcePoint" />
            <mxPoint x="74.104969065451" y="0.30814925939778015" as="targetPoint" />
          </mxGeometry>
        </mxCell>
        <mxCell id="t7YmEEANc2R9Ah_3-m2z-213" value="" style="endArrow=none;html=1;rounded=0;exitX=1.027;exitY=1.15;exitDx=0;exitDy=0;exitPerimeter=0;entryX=1.02;entryY=-0.004;entryDx=0;entryDy=0;entryPerimeter=0;strokeWidth=0.5;dashed=1;" edge="1" parent="t7YmEEANc2R9Ah_3-m2z-209">
          <mxGeometry width="50" height="50" relative="1" as="geometry">
            <mxPoint x="0.5088961250407225" y="52.909974220869515" as="sourcePoint" />
            <mxPoint as="targetPoint" />
          </mxGeometry>
        </mxCell>
        <mxCell id="t7YmEEANc2R9Ah_3-m2z-208" value="&lt;div style=&quot;font-size: 8px;&quot;&gt;&lt;span style=&quot;background-color: initial;&quot;&gt;&lt;font style=&quot;font-size: 8px;&quot;&gt;User Query is converted Into&lt;/font&gt;&lt;/span&gt;&lt;/div&gt;&lt;div style=&quot;font-size: 8px;&quot;&gt;&lt;div style=&quot;&quot;&gt;&lt;span style=&quot;background-color: initial;&quot;&gt;&lt;font style=&quot;font-size: 8px;&quot;&gt;Embeddings&lt;/font&gt;&lt;/span&gt;&lt;/div&gt;&lt;div style=&quot;&quot;&gt;&lt;font style=&quot;font-size: 8px;&quot;&gt;(11100011010.....)&lt;/font&gt;&lt;/div&gt;&lt;/div&gt;" style="text;html=1;align=center;verticalAlign=middle;whiteSpace=wrap;rounded=0;" vertex="1" parent="t7YmEEANc2R9Ah_3-m2z-209">
          <mxGeometry x="7.2099999999999795" y="12.869080779944293" width="60" height="27.883008356545965" as="geometry" />
        </mxCell>
        <mxCell id="t7YmEEANc2R9Ah_3-m2z-206" value="" style="group" vertex="1" connectable="0" parent="t7YmEEANc2R9Ah_3-m2z-251">
          <mxGeometry x="74" y="197.12256267409475" width="133" height="175.87743732590528" as="geometry" />
        </mxCell>
        <mxCell id="t7YmEEANc2R9Ah_3-m2z-205" value="" style="group" vertex="1" connectable="0" parent="t7YmEEANc2R9Ah_3-m2z-206">
          <mxGeometry x="10" y="8.579387186629527" width="133" height="175.87743732590528" as="geometry" />
        </mxCell>
        <mxCell id="t7YmEEANc2R9Ah_3-m2z-248" value="" style="group" vertex="1" connectable="0" parent="t7YmEEANc2R9Ah_3-m2z-205">
          <mxGeometry y="-8.710306406685238" width="123" height="175.87743732590528" as="geometry" />
        </mxCell>
        <mxCell id="t7YmEEANc2R9Ah_3-m2z-239" value="&amp;nbsp; &amp;nbsp; &amp;nbsp; &amp;nbsp; &amp;nbsp; &lt;b&gt;&lt;font color=&quot;#fc2305&quot;&gt;QA Bot&lt;/font&gt;&lt;/b&gt;&lt;div&gt;&lt;br&gt;&lt;/div&gt;&lt;div&gt;&lt;br&gt;&lt;/div&gt;&lt;div&gt;&lt;br&gt;&lt;/div&gt;&lt;div&gt;&lt;br&gt;&lt;/div&gt;&lt;div&gt;&lt;br&gt;&lt;/div&gt;&lt;div&gt;&lt;br&gt;&lt;/div&gt;&lt;div&gt;&lt;br&gt;&lt;/div&gt;&lt;div&gt;&lt;br&gt;&lt;/div&gt;&lt;div&gt;&lt;br&gt;&lt;/div&gt;" style="rounded=1;whiteSpace=wrap;html=1;align=left;fillColor=#f5f5f5;fontColor=#333333;strokeColor=#666666;" vertex="1" parent="t7YmEEANc2R9Ah_3-m2z-248">
          <mxGeometry width="123" height="175.87743732590528" as="geometry" />
        </mxCell>
        <mxCell id="t7YmEEANc2R9Ah_3-m2z-204" value="&lt;font style=&quot;font-size: 8px;&quot;&gt;User Query&lt;/font&gt;&lt;div style=&quot;font-size: 8px;&quot;&gt;&lt;font style=&quot;font-size: 8px;&quot;&gt;(What is Covid)&lt;/font&gt;&lt;/div&gt;" style="rounded=0;whiteSpace=wrap;html=1;" vertex="1" parent="t7YmEEANc2R9Ah_3-m2z-248">
          <mxGeometry x="57.5" y="50.40389972144847" width="60" height="34.853760445682454" as="geometry" />
        </mxCell>
        <mxCell id="t7YmEEANc2R9Ah_3-m2z-244" value="" style="verticalLabelPosition=bottom;aspect=fixed;html=1;shape=mxgraph.salesforce.bots;" vertex="1" parent="t7YmEEANc2R9Ah_3-m2z-248">
          <mxGeometry x="3" y="71.8523676880223" width="16.22222222222222" height="15.411111111111113" as="geometry" />
        </mxCell>
        <mxCell id="t7YmEEANc2R9Ah_3-m2z-245" value="&lt;font style=&quot;font-size: 7px;&quot;&gt;Ask Question -&amp;gt;&lt;/font&gt;" style="rounded=1;whiteSpace=wrap;html=1;align=left;" vertex="1" parent="t7YmEEANc2R9Ah_3-m2z-248">
          <mxGeometry x="28.5" y="152.2841225626741" width="72" height="12.869080779944293" as="geometry" />
        </mxCell>
        <mxCell id="t7YmEEANc2R9Ah_3-m2z-247" value="" style="endArrow=classic;html=1;rounded=0;" edge="1" parent="t7YmEEANc2R9Ah_3-m2z-205">
          <mxGeometry width="50" height="50" relative="1" as="geometry">
            <mxPoint x="317.82" y="129.96899721448466" as="sourcePoint" />
            <mxPoint x="121.82" y="142.22805013927575" as="targetPoint" />
            <Array as="points">
              <mxPoint x="318" y="143.29805013927574" />
            </Array>
          </mxGeometry>
        </mxCell>
        <mxCell id="t7YmEEANc2R9Ah_3-m2z-217" style="edgeStyle=orthogonalEdgeStyle;rounded=0;orthogonalLoop=1;jettySize=auto;html=1;" edge="1" parent="t7YmEEANc2R9Ah_3-m2z-251" target="t7YmEEANc2R9Ah_3-m2z-96">
          <mxGeometry relative="1" as="geometry">
            <mxPoint x="306" y="289.5543175487465" as="sourcePoint" />
            <Array as="points">
              <mxPoint x="336" y="290" />
              <mxPoint x="336" y="208" />
            </Array>
          </mxGeometry>
        </mxCell>
        <mxCell id="t7YmEEANc2R9Ah_3-m2z-224" value="" style="endArrow=classic;html=1;rounded=0;exitX=1;exitY=0.5;exitDx=0;exitDy=0;entryX=-0.008;entryY=0.597;entryDx=0;entryDy=0;entryPerimeter=0;" edge="1" parent="t7YmEEANc2R9Ah_3-m2z-251" target="t7YmEEANc2R9Ah_3-m2z-225">
          <mxGeometry width="50" height="50" relative="1" as="geometry">
            <mxPoint x="474" y="209.12256267409475" as="sourcePoint" />
            <mxPoint x="533" y="52.54874651810576" as="targetPoint" />
            <Array as="points">
              <mxPoint x="500" y="209" />
              <mxPoint x="500" y="99" />
            </Array>
          </mxGeometry>
        </mxCell>
        <mxCell id="t7YmEEANc2R9Ah_3-m2z-225" value="&lt;div&gt;&lt;font style=&quot;font-size: 9px;&quot;&gt;&lt;b&gt;&amp;nbsp; &amp;nbsp; &amp;nbsp; &amp;nbsp; &amp;nbsp; &amp;nbsp; &amp;nbsp; &lt;font style=&quot;font-size: 9px;&quot; color=&quot;#4d9900&quot;&gt;Retriever&lt;/font&gt;&lt;/b&gt;&lt;/font&gt;&lt;/div&gt;&lt;font style=&quot;font-size: 7px;&quot;&gt;Query : &quot;What is Covid?&lt;/font&gt;&lt;div style=&quot;font-size: 7px;&quot;&gt;&lt;span style=&quot;background-color: initial;&quot;&gt;Context :&amp;nbsp;&lt;/span&gt;&lt;span style=&quot;background-color: rgb(255, 255, 255); color: rgb(8, 8, 8); font-family: mayo-sans, sans-serif;&quot;&gt;COVID-19, also called coronavirus disease 2019, is an illness caused by a virus. The virus is called severe acute respiratory syndrome coronavirus 2, or more commonly, SARS-CoV-2. It started spreading at the end of 2019 and became a pandemic disease in 2020.&lt;/span&gt;&lt;/div&gt;" style="rounded=1;whiteSpace=wrap;html=1;align=left;" vertex="1" parent="t7YmEEANc2R9Ah_3-m2z-251">
          <mxGeometry x="516" y="28.565459610027855" width="120" height="117.966573816156" as="geometry" />
        </mxCell>
        <mxCell id="t7YmEEANc2R9Ah_3-m2z-228" value="" style="endArrow=classic;html=1;rounded=0;exitX=0.5;exitY=1;exitDx=0;exitDy=0;entryX=1;entryY=0.5;entryDx=0;entryDy=0;" edge="1" parent="t7YmEEANc2R9Ah_3-m2z-251" source="t7YmEEANc2R9Ah_3-m2z-229" target="t7YmEEANc2R9Ah_3-m2z-97">
          <mxGeometry width="50" height="50" relative="1" as="geometry">
            <mxPoint x="646" y="262.74373259052925" as="sourcePoint" />
            <mxPoint x="636" y="284.1922005571031" as="targetPoint" />
            <Array as="points">
              <mxPoint x="578" y="303.4958217270195" />
            </Array>
          </mxGeometry>
        </mxCell>
        <mxCell id="t7YmEEANc2R9Ah_3-m2z-229" value="&lt;font style=&quot;font-size: 9px;&quot;&gt;&lt;b&gt;&amp;nbsp; &amp;nbsp; &amp;nbsp; Prompt Template&lt;/b&gt;&lt;/font&gt;&lt;div style=&quot;font-size: 8px;&quot;&gt;&lt;font style=&quot;font-size: 8px;&quot;&gt;&lt;b&gt;&lt;br&gt;&lt;/b&gt;&lt;/font&gt;&lt;div&gt;&lt;div style=&quot;&quot;&gt;&lt;font style=&quot;font-size: 8px;&quot;&gt;[Use the following context to answer the question.&lt;/font&gt;&lt;/div&gt;&lt;div style=&quot;font-size: 7px;&quot;&gt;&lt;br&gt;&lt;div style=&quot;font-size: 7px;&quot;&gt;&lt;font style=&quot;font-size: 7px;&quot;&gt;Context:&amp;nbsp;&lt;/font&gt;&lt;span style=&quot;background-color: rgb(255, 255, 255); color: rgb(8, 8, 8); font-family: mayo-sans, sans-serif;&quot;&gt;COVID-19, also called coronavirus disease 2019, is an illness caused by a virus. The virus is called severe acute respiratory syndrome coronavirus 2, or more commonly, SARS-CoV-2. It started spreading at the end of 2019 and became a pandemic disease in 2020.&lt;/span&gt;&lt;/div&gt;&lt;div style=&quot;font-size: 7px;&quot;&gt;&lt;font style=&quot;background-color: initial;&quot;&gt;&lt;br&gt;&lt;/font&gt;&lt;/div&gt;&lt;div style=&quot;font-size: 7px;&quot;&gt;&lt;font style=&quot;background-color: initial;&quot;&gt;Question:&amp;nbsp;&lt;/font&gt;&lt;span style=&quot;background-color: initial; font-size: 8px;&quot;&gt;What is Covid?&lt;/span&gt;&lt;span style=&quot;background-color: initial;&quot;&gt;]&lt;/span&gt;&lt;br&gt;&lt;/div&gt;&lt;/div&gt;&lt;/div&gt;&lt;/div&gt;" style="rounded=1;whiteSpace=wrap;html=1;align=left;" vertex="1" parent="t7YmEEANc2R9Ah_3-m2z-251">
          <mxGeometry x="518" y="169.98050139275767" width="120" height="160.86350974930363" as="geometry" />
        </mxCell>
        <mxCell id="t7YmEEANc2R9Ah_3-m2z-230" value="" style="endArrow=classic;html=1;rounded=0;entryX=0.483;entryY=-0.003;entryDx=0;entryDy=0;entryPerimeter=0;" edge="1" parent="t7YmEEANc2R9Ah_3-m2z-251">
          <mxGeometry width="50" height="50" relative="1" as="geometry">
            <mxPoint x="576" y="147.60445682451254" as="sourcePoint" />
            <mxPoint x="575.96" y="169.6427576601671" as="targetPoint" />
          </mxGeometry>
        </mxCell>
        <mxCell id="t7YmEEANc2R9Ah_3-m2z-234" value="&lt;pre style=&quot;font-size: 8px;&quot;&gt;&lt;span style=&quot;background-color: initial;&quot;&gt;Covid is called as&lt;br&gt;&lt;/span&gt;&lt;span style=&quot;background-color: initial;&quot;&gt;coronavirus disease,&lt;br&gt;&lt;/span&gt;&lt;span style=&quot;background-color: initial;&quot;&gt;caused by Corona virus&lt;/span&gt;&lt;/pre&gt;" style="rounded=0;whiteSpace=wrap;html=1;align=left;" vertex="1" parent="t7YmEEANc2R9Ah_3-m2z-251">
          <mxGeometry x="88" y="290.2200557103064" width="100" height="37.534818941504184" as="geometry" />
        </mxCell>
        <mxCell id="t7YmEEANc2R9Ah_3-m2z-193" value="" style="sketch=0;outlineConnect=0;fontColor=#232F3E;gradientColor=none;fillColor=#232F3D;strokeColor=none;dashed=1;verticalLabelPosition=bottom;verticalAlign=top;align=center;html=1;fontSize=12;fontStyle=0;aspect=fixed;pointerEvents=1;shape=mxgraph.aws4.user;dashPattern=1 1;" vertex="1" parent="t7YmEEANc2R9Ah_3-m2z-251">
          <mxGeometry x="9" y="257.6128133704736" width="59.48148148148148" height="59.48148148148148" as="geometry" />
        </mxCell>
        <mxCell id="t7YmEEANc2R9Ah_3-m2z-242" value="" style="shape=actor;whiteSpace=wrap;html=1;fillColor=#dae8fc;strokeColor=#6c8ebf;" vertex="1" parent="t7YmEEANc2R9Ah_3-m2z-251">
          <mxGeometry x="183" y="255.23676880222843" width="10" height="10.72423398328691" as="geometry" />
        </mxCell>
        <mxCell id="t7YmEEANc2R9Ah_3-m2z-249" value="" style="endArrow=classic;html=1;rounded=0;exitX=1.002;exitY=0.519;exitDx=0;exitDy=0;exitPerimeter=0;" edge="1" parent="t7YmEEANc2R9Ah_3-m2z-251" source="t7YmEEANc2R9Ah_3-m2z-239">
          <mxGeometry width="50" height="50" relative="1" as="geometry">
            <mxPoint x="210" y="288.4818941504179" as="sourcePoint" />
            <mxPoint x="232" y="288.4818941504179" as="targetPoint" />
          </mxGeometry>
        </mxCell>
        <mxCell id="t7YmEEANc2R9Ah_3-m2z-250" value="" style="endArrow=classic;html=1;rounded=0;entryX=-0.025;entryY=0.505;entryDx=0;entryDy=0;entryPerimeter=0;" edge="1" parent="t7YmEEANc2R9Ah_3-m2z-251" source="t7YmEEANc2R9Ah_3-m2z-193" target="t7YmEEANc2R9Ah_3-m2z-239">
          <mxGeometry width="50" height="50" relative="1" as="geometry">
            <mxPoint x="276" y="209.12256267409475" as="sourcePoint" />
            <mxPoint x="326" y="155.50139275766017" as="targetPoint" />
          </mxGeometry>
        </mxCell>
      </root>
    </mxGraphModel>
  </diagram>
</mxfile>
